<?xml version="1.0" standalone="no"?>
<!DOCTYPE svg PUBLIC "-//W3C//DTD SVG 1.1//EN" "http://www.w3.org/Graphics/SVG/1.1/DTD/svg11.dtd" >
<svg xmlns="http://www.w3.org/2000/svg" xmlns:xlink="http://www.w3.org/1999/xlink" version="1.1">
<metadata>
Created by FontForge 20160407 at Thu Jun  2 17:00:14 2016
 By Jimmy Wärting
Copyright (c) Mark Simonson, 2010. All rights reserved.
</metadata>
<defs>
<font id="ProximaNovaSoftW03-Regular" horiz-adv-x="572" >
  <font-face 
    font-family="ProximaNovaSoftW03-Regular"
    font-weight="400"
    font-stretch="normal"
    units-per-em="1000"
    panose-1="2 0 5 6 3 0 0 2 0 4"
    ascent="800"
    descent="-200"
    x-height="483"
    cap-height="673"
    bbox="-96 -196 1057 887"
    underline-thickness="50"
    underline-position="-175"
    unicode-range="U+000D-FB02"
  />
<missing-glyph horiz-adv-x="507" 
d="M429 -60q0 -13 -9 -21.5t-21 -8.5h-291q-13 0 -21.5 8.5t-8.5 21.5v782q0 12 8.5 21t21.5 9h291q12 0 21 -9t9 -21v-782zM397 -60v782h-288v-782h288z" />
    <glyph glyph-name="uniFB01" unicode="fi" horiz-adv-x="509" 
d="M395 653q21 0 36 -15t15 -36t-15 -35.5t-36 -14.5q-20 0 -35 14.5t-15 35.5t15 36t35 15zM433 31q0 -15 -11 -26t-27 -11q-15 0 -26 11t-11 26v422q0 14 11 25t28 11q14 0 25 -11t11 -25v-422zM307 643q0 -14 -6.5 -23.5t-20.5 -9.5q-6 0 -14 2.5t-19 2.5
q-37 0 -56.5 -24.5t-19.5 -70.5v-37h72q14 0 23 -9t9 -23t-9 -24t-23 -10h-72v-386q0 -15 -11 -26t-25 -11q-16 0 -27.5 10t-11.5 27v386h-54q-14 0 -23 9t-9 23t8.5 24t23.5 10h54v37q0 37 10 66.5t28.5 49.5t44 30.5t57.5 10.5q10 0 22.5 -1t23.5 -4.5t18 -10t7 -18.5z
" />
    <glyph glyph-name="uniFB02" unicode="fl" horiz-adv-x="509" 
d="M433 31q0 -15 -11 -26t-27 -11q-15 0 -26 11t-11 26v606q0 14 11 25t28 11q14 0 25 -11t11 -25v-606zM307 643q0 -14 -6.5 -23.5t-20.5 -9.5q-6 0 -14 2.5t-19 2.5q-37 0 -56.5 -24.5t-19.5 -70.5v-37h72q14 0 23 -9t9 -23t-9 -24t-23 -10h-72v-386q0 -15 -11 -26
t-25 -11q-16 0 -27.5 10t-11.5 27v386h-54q-14 0 -23 9t-9 23t8.5 24t23.5 10h54v37q0 37 10 66.5t28.5 49.5t44 30.5t57.5 10.5q10 0 22.5 -1t23.5 -4.5t18 -10t7 -18.5z" />
    <glyph glyph-name=".notdef" horiz-adv-x="507" 
d="M429 -60q0 -13 -9 -21.5t-21 -8.5h-291q-13 0 -21.5 8.5t-8.5 21.5v782q0 12 8.5 21t21.5 9h291q12 0 21 -9t9 -21v-782zM397 -60v782h-288v-782h288z" />
    <glyph glyph-name="glyph1" horiz-adv-x="0" 
 />
    <glyph glyph-name="glyph1" horiz-adv-x="0" 
 />
    <glyph glyph-name="uni000D" unicode="&#xd;" horiz-adv-x="258" 
 />
    <glyph glyph-name="space" unicode=" " horiz-adv-x="258" 
 />
    <glyph glyph-name="exclam" unicode="!" horiz-adv-x="230" 
d="M161 627l-1 -31t-2.5 -77t-3.5 -100t-3.5 -100t-2.5 -77l-1 -31q-1 -13 -10 -21.5t-23 -8.5q-13 0 -21.5 8.5t-9.5 21.5l-1 31t-2.5 77t-3.5 100t-3.5 100t-2.5 77l-1 31q-1 19 13 32.5t34 13.5q19 0 32.5 -13.5t12.5 -32.5zM170 45q0 -11 -4.5 -21t-12 -17.5t-17.5 -12
t-21 -4.5t-21 4.5t-17.5 12t-12 17.5t-4.5 21q0 23 16 39t39 16t39 -16t16 -39z" />
    <glyph glyph-name="quotedbl" unicode="&#x22;" horiz-adv-x="343" 
d="M290 631q0 -4 -3 -30t-7 -59t-8 -66.5t-7 -52.5q-1 -7 -7 -12t-15 -5q-7 0 -12.5 5t-6.5 12q-3 19 -7 52.5t-8 66.5t-7 59t-3 30q0 19 13 32.5t33 13.5q19 0 32 -13.5t13 -32.5zM145 631q0 -4 -3 -30t-7 -59t-8 -66.5t-7 -52.5q-1 -7 -7 -12t-15 -5q-7 0 -12.5 5t-6.5 12
q-3 19 -7 52.5t-8 66.5t-7 59t-3 30q0 19 13 32.5t32 13.5q20 0 33 -13.5t13 -32.5z" />
    <glyph glyph-name="numbersign" unicode="#" horiz-adv-x="590" 
d="M564 458q0 -11 -7 -18t-18 -7h-94l-67 -199h81q10 0 17.5 -8t7.5 -19t-7.5 -18.5t-17.5 -7.5h-99l-56 -168q-3 -9 -10.5 -14.5t-17.5 -5.5q-13 0 -21 8.5t-8 19.5q0 2 0.5 4.5t1.5 4.5l51 151h-111l-56 -168q-3 -9 -10.5 -14.5t-17.5 -5.5q-14 0 -22 9t-8 20q0 3 2 9
l51 150h-74q-11 0 -18.5 8t-7.5 20q0 10 7.5 17.5t18.5 7.5h92l66 199h-78q-11 0 -18 7.5t-7 19.5q0 11 7 18t18 7h96l56 169q3 9 10.5 14t17.5 5q13 0 21 -8.5t8 -19.5q0 -6 -1 -9l-50 -151h110l56 169q3 9 10.5 14t16.5 5q14 0 21.5 -8.5t7.5 -19.5q0 -5 -1 -8l-51 -152
h77q11 0 18 -7.5t7 -19.5zM383 433h-110l-66 -199h110z" />
    <glyph glyph-name="dollar" unicode="$" horiz-adv-x="593" 
d="M544 184q0 -34 -11.5 -67t-37 -60t-65.5 -45.5t-98 -22.5v-66q0 -12 -8.5 -20.5t-20.5 -8.5q-14 0 -23 8.5t-9 20.5v66q-32 2 -61.5 8.5t-55.5 17t-48.5 25t-41.5 31.5q-7 6 -10 14t-3 16q0 15 10.5 28.5t27.5 13.5q13 0 24 -9q30 -26 70 -46t88 -25v244q-38 10 -75.5 23
t-67 33.5t-47.5 51.5t-18 77q0 39 15.5 71.5t43 56.5t66 38.5t83.5 17.5v69q0 12 9 20.5t23 8.5q12 0 20.5 -8.5t8.5 -20.5v-70q26 -3 49.5 -8t45 -13.5t41.5 -20.5t38 -28q13 -10 13 -29q0 -8 -3 -15.5t-8.5 -13t-12.5 -9t-15 -3.5q-14 0 -24 9q-29 25 -59.5 37.5
t-64.5 17.5v-217q39 -11 77 -25t68 -36t48.5 -55t18.5 -82zM271 398v204q-54 -4 -88 -32t-34 -73q0 -21 9.5 -36.5t26 -26.5t38.5 -20t48 -16zM458 177q0 24 -10 42t-27 31t-40 22.5t-49 17.5v-227q36 4 60 15.5t38.5 27.5t21 34.5t6.5 36.5z" />
    <glyph glyph-name="percent" unicode="%" horiz-adv-x="731" 
d="M353 511q0 -35 -12 -65t-33 -51.5t-51 -34t-66 -12.5t-65.5 12.5t-50.5 34t-32.5 51.5t-11.5 65t11.5 65.5t32.5 53t50.5 35t65.5 12.5t66 -12.5t51 -35t33 -53t12 -65.5zM185 3q-7 -10 -18 -10q-9 0 -16.5 6.5t-7.5 16.5q0 7 4 12l405 635q7 10 19 10q10 0 16.5 -7.5
t6.5 -16.5q0 -7 -3 -11zM700 151q0 -35 -12 -65t-33 -51.5t-50.5 -34t-65.5 -12.5t-65.5 12.5t-50.5 34t-32.5 51.5t-11.5 65t11.5 65.5t32.5 53t50.5 35t65.5 12.5t65.5 -12.5t50.5 -35t33 -53t12 -65.5zM91 511q0 -48 27.5 -80.5t72.5 -32.5q22 0 41 9t32.5 24t21 35.5
t7.5 44.5q0 50 -28.5 82.5t-73.5 32.5t-72.5 -32.5t-27.5 -82.5zM438 151q0 -24 7.5 -44.5t20.5 -35.5t31.5 -24t41.5 -9q22 0 41 9t32.5 24t21 35.5t7.5 44.5q0 50 -28.5 82.5t-73.5 32.5t-73 -32.5t-28 -82.5z" />
    <glyph glyph-name="ampersand" unicode="&#x26;" horiz-adv-x="641" 
d="M483 126q13 -15 27.5 -28t27 -25t20.5 -23t8 -20q0 -14 -10 -25t-27 -11q-10 0 -22.5 8.5t-25 20.5t-24.5 25t-21 22q-37 -37 -84 -59.5t-108 -22.5q-43 0 -81 11.5t-66 35t-44.5 58t-16.5 81.5q0 39 12 69t32.5 53.5t47 42t55.5 33.5q-23 38 -37 76.5t-14 73.5
q0 33 13 61.5t35.5 49.5t53.5 32.5t66 11.5q33 0 60.5 -8.5t47.5 -25.5t31.5 -41.5t11.5 -55.5q0 -38 -14.5 -65.5t-38.5 -49.5t-54.5 -39.5t-62.5 -33.5q23 -32 43.5 -57.5t39.5 -47t37 -41t36 -38.5q21 31 36.5 64.5t26.5 61.5q4 10 12.5 15.5t19.5 5.5q15 0 24.5 -10.5
t9.5 -23.5q0 -8 -3 -14q-8 -18 -17 -37t-19 -37.5t-21 -37t-23 -35.5zM117 179q0 -31 11 -55t29.5 -40.5t43 -25t50.5 -8.5q42 0 76.5 18.5t63.5 47.5q-36 38 -60.5 64.5t-44 49t-36 44t-35.5 49.5q-42 -26 -70 -59t-28 -85zM303 618q-19 0 -36 -7t-29.5 -20t-20 -31
t-7.5 -39q0 -26 11.5 -56t28.5 -59q27 13 51 27t42 30t28.5 35.5t10.5 44.5q0 37 -22.5 56t-56.5 19z" />
    <glyph glyph-name="quotesingle" unicode="'" horiz-adv-x="199" 
d="M145 631q0 -4 -3 -30t-7 -59t-8 -66.5t-7 -52.5q-1 -7 -7 -12t-15 -5q-7 0 -12.5 5t-6.5 12q-3 19 -7 52.5t-8 66.5t-7 59t-3 30q0 19 13 32.5t32 13.5q20 0 33 -13.5t13 -32.5z" />
    <glyph glyph-name="parenleft" unicode="(" horiz-adv-x="248" 
d="M226 -161q0 -11 -8.5 -21t-22.5 -10q-7 0 -13 3t-11 9q-30 45 -54 95.5t-40 104t-24.5 110t-8.5 113.5t8.5 113.5t24.5 110t40 104t55 95.5q4 6 10 9.5t14 3.5q13 0 21.5 -8.5t8.5 -20.5q0 -8 -2 -12q-22 -45 -40 -90t-31 -93t-20 -100.5t-7 -111.5q0 -116 26.5 -210
t70.5 -182q3 -6 3 -12z" />
    <glyph glyph-name="parenright" unicode=")" horiz-adv-x="248" 
d="M204 243q0 -57 -8.5 -113.5t-24.5 -110t-40 -104t-54 -95.5q-5 -6 -11 -9t-13 -3q-14 0 -22.5 9.5t-8.5 20.5q0 7 3 13q44 88 70.5 182t26.5 210q0 59 -7 111.5t-20 100.5t-31 93t-40 90q-3 4 -3 11q0 11 8 20.5t22 9.5q8 0 14 -3t11 -10q31 -45 55 -95.5t40 -104
t24.5 -110t8.5 -113.5z" />
    <glyph glyph-name="asterisk" unicode="*" horiz-adv-x="340" 
d="M171 683q9 0 15.5 -6.5t5.5 -15.5l-5 -99l84 53q4 3 11 3t14.5 -5.5t7.5 -16.5q0 -13 -11 -18l-89 -45l88 -45q11 -5 11 -19q0 -9 -6 -15.5t-16 -6.5q-7 0 -11 3l-83 54l5 -99q1 -9 -5.5 -15.5t-17.5 -6.5q-10 0 -15.5 6.5t-5.5 15.5l4 99l-84 -54q-5 -3 -10 -3
q-8 0 -15 6t-7 16q0 6 3 11t8 8l89 45l-89 45q-11 6 -11 19q0 10 6.5 16t15.5 6q5 0 10 -3l84 -54l-4 99q0 9 6 15.5t17 6.5z" />
    <glyph glyph-name="plus" unicode="+" horiz-adv-x="499" 
d="M476 338q0 -12 -7 -19.5t-18 -7.5h-173v-191q0 -12 -8 -20t-21 -8q-12 0 -20 8t-8 20v191h-173q-11 0 -18 7.5t-7 19.5q0 11 7 18t18 7h173v186q0 11 8 19t22 8q11 0 19 -8t8 -19v-186h173q11 0 18 -7t7 -18z" />
    <glyph glyph-name="comma" unicode="," horiz-adv-x="230" 
d="M176 24q0 -40 -20 -78.5t-51 -64.5q-7 -5 -13 -5q-8 0 -16.5 6t-8.5 17t8 19q18 17 31.5 38t15.5 41q-2 -1 -6 -1.5t-8 -0.5q-21 0 -34.5 14t-13.5 37q0 22 15 38t38 16q12 0 23.5 -5t20.5 -15t14 -24t5 -32z" />
    <glyph glyph-name="hyphen" unicode="-" horiz-adv-x="300" 
d="M276 243q0 -15 -9 -24.5t-23 -9.5h-188q-14 0 -23 9.5t-9 24.5q0 14 9 23t23 9h188q14 0 23 -9t9 -23z" />
    <glyph glyph-name="period" unicode="." horiz-adv-x="230" 
d="M170 45q0 -23 -16 -39t-39 -16t-39 16t-16 39t16 39t39 16t39 -16t16 -39z" />
    <glyph glyph-name="slash" unicode="/" horiz-adv-x="296" 
d="M288 670q0 -6 -1 -9l-225 -674q-3 -8 -10 -13t-16 -5q-12 0 -20.5 8.5t-8.5 19.5q0 3 2 9l225 674q3 8 10 13t16 5q12 0 20 -8.5t8 -19.5z" />
    <glyph glyph-name="zero" unicode="0" horiz-adv-x="612" 
d="M561 333q0 -61 -14.5 -122.5t-45 -111t-79 -80.5t-116.5 -31q-69 0 -117 31t-79 80.5t-45 111t-14 122.5t14 122.5t45 110.5t79 80t117 31q68 0 116.5 -31t79 -80t45 -110.5t14.5 -122.5zM476 333q0 50 -8.5 98.5t-28.5 86.5t-52.5 61.5t-80.5 23.5t-80.5 -23.5
t-52.5 -61.5t-28.5 -86.5t-8.5 -98.5t8.5 -98.5t28.5 -87t52.5 -62t80.5 -23.5t80.5 23.5t52.5 62t28.5 87t8.5 98.5z" />
    <glyph glyph-name="one" unicode="1" horiz-adv-x="339" 
d="M261 35q0 -17 -12 -29t-30 -12q-17 0 -29 12t-12 29v522l-88 -93q-10 -10 -24 -10t-25 10t-11 26q0 15 10 25l141 144q12 13 33 13q19 0 33 -12.5t14 -32.5v-592v0z" />
    <glyph glyph-name="two" unicode="2" horiz-adv-x="588" 
d="M518 38q0 -17 -10.5 -27.5t-25.5 -10.5h-399q-14 0 -26 11.5t-12 28.5q0 9 3.5 17t11.5 14q88 68 155.5 124.5t114 106t70.5 93.5t24 86q0 32 -12 55t-31.5 38t-44.5 22t-51 7q-50 0 -90.5 -16.5t-70.5 -45.5q-10 -10 -24 -10t-26 10.5t-12 26.5t10 26q21 21 45 36.5
t51 26t56.5 15.5t60.5 5q42 0 82 -12t71.5 -36t51 -61t19.5 -87q0 -51 -24.5 -100.5t-68 -99t-102.5 -101t-129 -106.5h297q15 0 25.5 -10.5t10.5 -25.5z" />
    <glyph glyph-name="three" unicode="3" horiz-adv-x="557" 
d="M502 180q0 -42 -16 -77t-46.5 -60.5t-74.5 -40t-99 -14.5q-36 0 -68 6.5t-60 18.5t-50.5 28t-40.5 35q-10 10 -10 24t10 26.5t25 12.5q13 0 25 -10q32 -32 74.5 -49.5t92.5 -17.5q73 0 114.5 33.5t41.5 91.5q0 31 -12 53.5t-34 36.5t-52.5 21t-67.5 7q-11 0 -24.5 -0.5
t-24.5 2.5t-18.5 11t-7.5 25q0 15 10.5 25.5t25.5 10.5q37 0 72 4t62 15.5t43.5 33t16.5 57.5q0 28 -12 49t-32 35.5t-47.5 22t-57.5 7.5q-47 0 -85 -15.5t-72 -45.5q-9 -9 -22 -9t-24.5 10t-11.5 26t11 25q39 38 91 60.5t119 22.5q48 0 89.5 -12t71.5 -34.5t47.5 -56
t17.5 -75.5q0 -36 -13.5 -63t-34.5 -46t-46.5 -30.5t-49.5 -15.5q23 -2 50 -13t50 -31t38.5 -50t15.5 -70z" />
    <glyph glyph-name="four" unicode="4" horiz-adv-x="558" 
d="M532 205q0 -15 -10.5 -25.5t-24.5 -10.5h-65v-134q0 -17 -12 -29t-30 -12q-17 0 -29 12t-12 29v134h-282q-16 0 -28.5 12.5t-12.5 32.5q0 14 8 27l267 401q10 14 26 22.5t34 8.5q14 0 27 -5.5t22.5 -15.5t15.5 -22.5t6 -26.5v-361h65q14 0 24.5 -10.5t10.5 -26.5z
M349 242v348l-234 -348h234z" />
    <glyph glyph-name="five" unicode="5" horiz-adv-x="590" 
d="M538 208q0 -51 -18 -92t-50 -69.5t-75.5 -43.5t-93.5 -15q-36 0 -67.5 5.5t-58 16t-49 26.5t-41.5 36q-10 10 -10 26q0 13 9.5 26t26.5 13q16 0 26 -10q32 -32 72 -48.5t92 -16.5q34 0 62.5 11t48.5 30t31.5 45.5t11.5 56.5q0 33 -11.5 59.5t-31.5 45.5t-48 29t-62 10
q-38 0 -73.5 -12t-64.5 -36q-16 -13 -34 -13q-17 0 -30 11.5t-13 29.5v278q0 25 17.5 42.5t42.5 17.5h318q15 0 25.5 -10.5t10.5 -27.5q0 -15 -10.5 -25.5t-25.5 -10.5h-295v-232q24 24 64.5 42t91.5 18q42 0 80 -14t67.5 -41t47 -67t17.5 -91z" />
    <glyph glyph-name="six" unicode="6" horiz-adv-x="591" 
d="M542 206q0 -44 -16 -83.5t-46 -69.5t-73.5 -47.5t-98.5 -17.5q-70 0 -119 28.5t-79.5 76t-44.5 109.5t-14 130t16 130.5t49.5 110t84.5 76t121 28.5q27 0 51 -4t44.5 -12t39 -20t35.5 -28q10 -10 10 -25t-11 -26t-26 -11t-25 9q-22 20 -49.5 31.5t-68.5 11.5
q-48 0 -83.5 -22.5t-59 -59.5t-34.5 -84t-11 -96v-13t1 -13q11 17 29.5 35.5t43.5 33.5t54.5 25t61.5 10q45 0 84.5 -13.5t69.5 -40t47 -66.5t17 -93zM458 203q0 37 -12 64t-33 45t-49 26.5t-60 8.5q-50 0 -94.5 -27.5t-72.5 -72.5q3 -31 13.5 -64t30 -60t50 -44t74.5 -17
q39 0 67.5 13t47.5 33.5t28.5 45.5t9.5 49z" />
    <glyph glyph-name="seven" unicode="7" horiz-adv-x="515" 
d="M491 628q0 -8 -3 -14l-267 -596q-5 -11 -15.5 -17.5t-22.5 -6.5q-19 0 -31 12.5t-12 28.5q0 6 4 16l246 542h-329q-15 0 -25.5 10.5t-10.5 27.5q0 15 10.5 25.5t25.5 10.5h391q13 0 26 -10.5t13 -28.5z" />
    <glyph glyph-name="eight" unicode="8" horiz-adv-x="581" 
d="M530 169q0 -42 -19 -76t-51.5 -57t-76 -35.5t-92.5 -12.5q-50 0 -93.5 12t-75.5 35.5t-51 57t-19 76.5q0 33 13 61t35 50.5t51 38.5t60 25q-29 8 -55.5 22t-47 33.5t-33 45.5t-12.5 59q0 45 20 77.5t52.5 54t73 31.5t82.5 10q41 0 82 -10t73.5 -31.5t53 -54t20.5 -77.5
q0 -33 -12.5 -59t-33 -45.5t-47.5 -33.5t-56 -22q31 -9 60 -25t51 -38.5t35 -50.5t13 -61zM436 493q0 26 -11.5 46.5t-31 34.5t-46 21.5t-56.5 7.5t-56.5 -7.5t-46 -21.5t-31 -34.5t-11.5 -46.5q0 -30 17 -51t40.5 -34.5t48 -20t39.5 -9.5q15 3 40 9.5t48 20t40 34.5t17 51z
M446 178q0 33 -18.5 56.5t-43.5 39t-51.5 23.5t-41.5 10q-15 -2 -41.5 -10t-52 -23.5t-44 -39t-18.5 -56.5q0 -27 12.5 -48.5t34 -36.5t50 -23t59.5 -8t59 8t49.5 23t34 36.5t12.5 48.5z" />
    <glyph glyph-name="nine" unicode="9" horiz-adv-x="591" 
d="M540 334q0 -68 -16 -130.5t-49.5 -110t-84.5 -76t-121 -28.5q-27 0 -51 4t-44.5 12t-39 20t-35.5 28q-11 9 -11 25q0 7 3 14t8.5 12t12 8t14.5 3q14 0 25 -9q22 -20 49.5 -31.5t68.5 -11.5q48 0 83.5 22.5t59 59.5t34.5 84t11 96v13t-1 13q-11 -17 -29.5 -35.5
t-43.5 -33.5t-54.5 -25t-61.5 -10q-45 0 -84.5 13.5t-69.5 40t-47 66.5t-17 93q0 43 16 82.5t46 69.5t73.5 48t98.5 18q70 0 118.5 -28.5t79.5 -76t45 -109.5t14 -130zM454 419q-3 31 -13.5 64t-30 60t-50.5 44t-74 17q-39 0 -67.5 -13t-47.5 -33.5t-28.5 -45.5t-9.5 -49
q0 -37 12 -64t33 -45t49 -26.5t60 -8.5q50 0 94.5 27.5t72.5 72.5z" />
    <glyph glyph-name="colon" unicode=":" horiz-adv-x="230" 
d="M170 435q0 -23 -16 -39t-39 -16t-39 16t-16 39t16 39t39 16t39 -16t16 -39zM170 45q0 -23 -16 -39t-39 -16t-39 16t-16 39t16 39t39 16t39 -16t16 -39z" />
    <glyph glyph-name="semicolon" unicode=";" horiz-adv-x="230" 
d="M170 435q0 -11 -4.5 -21t-12 -17.5t-17.5 -12t-21 -4.5t-21 4.5t-17.5 12t-12 17.5t-4.5 21q0 23 16 39t39 16t39 -16t16 -39zM176 26q0 -40 -20 -78.5t-51 -64.5q-7 -5 -13 -5q-8 0 -16.5 6t-8.5 17t8 19q18 17 31.5 38t15.5 41q-2 -1 -6 -1.5t-8 -0.5q-21 0 -34.5 14
t-13.5 37q0 22 15 38t38 16q12 0 23.5 -5t20.5 -15t14 -24t5 -32z" />
    <glyph glyph-name="less" unicode="&#x3c;" horiz-adv-x="499" 
d="M476 133q0 -14 -10 -21.5t-19 -7.5q-5 0 -11 3l-393 194q-9 5 -14.5 14t-5.5 21q0 10 5.5 18.5t14.5 13.5l392 195q4 2 12 2q10 0 19.5 -7.5t9.5 -20.5q0 -8 -4 -14.5t-12 -10.5l-367 -178l368 -177q7 -3 11 -10t4 -14z" />
    <glyph glyph-name="equal" unicode="=" horiz-adv-x="499" 
d="M476 432q0 -12 -7.5 -20t-17.5 -8h-402q-11 0 -18.5 8t-7.5 20q0 10 7.5 17.5t18.5 7.5h402q10 0 17.5 -7.5t7.5 -17.5zM476 238q0 -12 -7 -19.5t-18 -7.5h-403q-11 0 -18 7.5t-7 19.5q0 11 7 18t18 7h403q11 0 18 -7t7 -18z" />
    <glyph glyph-name="greater" unicode="&#x3e;" horiz-adv-x="499" 
d="M475 336q0 -12 -5.5 -21t-14.5 -14l-393 -194q-6 -3 -12 -3q-9 0 -18.5 8t-9.5 21q0 7 4 14t11 10l368 177l-367 178q-8 4 -12 10t-4 14q0 13 9 21t20 8q8 0 12 -2l392 -195q9 -5 14.5 -13.5t5.5 -18.5z" />
    <glyph glyph-name="question" unicode="?" horiz-adv-x="462" 
d="M431 522q0 -38 -14.5 -65t-36 -48t-46.5 -38t-46.5 -33.5t-36 -35t-14.5 -42.5q0 -11 6.5 -22.5t6.5 -22.5q0 -13 -9 -23t-23 -10q-15 0 -25.5 10.5t-16.5 24.5t-9 28t-3 21q0 32 13.5 55t33.5 41t43.5 33.5t43.5 32t33.5 36t13.5 46.5q0 38 -29 65.5t-89 27.5
q-46 0 -80 -16t-60 -43q-9 -10 -24 -10q-14 0 -25 11t-11 26q0 16 10 26q19 19 41 34t46.5 25t52.5 15.5t58 5.5q46 0 82 -12t61.5 -33t39 -49.5t13.5 -60.5zM279 45q0 -23 -16 -39t-39 -16t-39 16t-16 39t16 39t39 16t39 -16t16 -39z" />
    <glyph glyph-name="at" unicode="@" horiz-adv-x="783" 
d="M747 321q0 -59 -15 -103t-40 -73.5t-56 -44.5t-62 -15q-42 0 -65.5 25t-25.5 59q-27 -35 -69 -59.5t-90 -24.5q-35 0 -63 12t-48 33.5t-31 51.5t-11 66q0 52 20 98t53 80t75.5 53.5t86.5 19.5q49 0 81.5 -23t46.5 -55l9 44q2 11 11.5 18t20.5 7q15 0 24.5 -9t9.5 -22
q0 -2 -0.5 -3.5t-0.5 -3.5l-50 -240q-1 -5 -1.5 -10.5t-0.5 -10.5q0 -26 13.5 -39t33.5 -13q15 0 33.5 9t35 30t28 56t11.5 87q0 61 -20.5 113t-57.5 90t-89 59t-116 21q-72 0 -137.5 -29.5t-114.5 -79t-78 -114.5t-29 -135q0 -60 21.5 -112t59.5 -90t91 -59.5t115 -21.5
q50 0 94.5 13.5t84.5 38.5q4 2 7 2q5 0 11 -4t6 -12q0 -9 -6 -12q-45 -28 -97 -43.5t-104 -15.5q-68 0 -126 24t-100.5 66.5t-66.5 100t-24 123.5q0 81 33 152.5t87.5 125.5t126.5 85t150 31q71 0 129 -25t99.5 -68t64 -100.5t22.5 -123.5zM522 369q-4 12 -12.5 25t-21 24
t-30 18t-39.5 7q-38 0 -70 -16.5t-56 -43t-37.5 -61t-13.5 -70.5q0 -48 27 -79.5t75 -31.5q26 0 48.5 8t41 21t33.5 29t26 32z" />
    <glyph glyph-name="A" unicode="A" horiz-adv-x="658" 
d="M630 38q0 -15 -12.5 -29.5t-32.5 -14.5q-13 0 -24 7t-16 20l-50 127h-332l-50 -127q-5 -13 -16 -20t-24 -7q-20 0 -32.5 13.5t-12.5 30.5q0 8 3 16l230 574q8 20 26.5 32.5t41.5 12.5q22 0 40 -12.5t26 -32.5l232 -574q3 -8 3 -16zM470 222l-141 359l-142 -359h283z" />
    <glyph glyph-name="B" unicode="B" horiz-adv-x="629" 
d="M575 180q0 -40 -13 -73t-38 -57t-60.5 -37t-81.5 -13h-244q-25 0 -42.5 17.5t-17.5 42.5v547q0 25 17.5 42.5t42.5 17.5h237q43 0 78 -12.5t59 -35t37 -54t13 -68.5q0 -32 -9.5 -58t-26 -45.5t-37.5 -32t-44 -17.5q27 -4 50.5 -19t41 -37t28 -50t10.5 -58zM476 485
q0 45 -29 76.5t-86 31.5h-200v-215h200q57 0 86 30.5t29 76.5zM489 189q0 23 -8 44t-23.5 36.5t-38.5 25t-54 9.5h-204v-230h204q59 0 91.5 30.5t32.5 84.5z" />
    <glyph glyph-name="C" unicode="C" horiz-adv-x="676" 
d="M394 678q75 0 130 -27t93 -68q11 -13 11 -29t-11 -28t-28 -12q-8 0 -15.5 3t-12.5 10q-29 35 -74.5 56t-92.5 21q-55 0 -102 -20t-81.5 -56t-54 -85.5t-19.5 -109.5q0 -59 19.5 -109t54 -86t81.5 -56t102 -20q48 0 91.5 19.5t75.5 56.5q5 6 12.5 9.5t15.5 3.5
q17 0 28 -12.5t11 -28.5q0 -8 -3 -15t-8 -13q-39 -41 -93.5 -67.5t-129.5 -26.5q-72 0 -134.5 25t-109 70.5t-73 109t-26.5 140.5t26.5 140.5t73 109t109 70.5t134.5 25z" />
    <glyph glyph-name="D" unicode="D" horiz-adv-x="700" 
d="M648 333q0 -71 -24.5 -132t-69 -105.5t-107.5 -70t-141 -25.5h-168q-25 0 -42.5 17.5t-17.5 42.5v547q0 25 17.5 42.5t42.5 17.5h168q78 0 141 -25.5t107.5 -70.5t69 -106t24.5 -132zM562 333q0 54 -17 101.5t-49.5 82.5t-80 55.5t-109.5 20.5h-145v-519h145
q61 0 108.5 20.5t80.5 55.5t50 82t17 101z" />
    <glyph glyph-name="E" unicode="E" horiz-adv-x="569" 
d="M521 38q0 -17 -10.5 -27.5t-25.5 -10.5h-347q-25 0 -42.5 17.5t-17.5 42.5v547q0 25 17.5 42.5t42.5 17.5h347q15 0 25.5 -10.5t10.5 -27.5q0 -15 -10.5 -25.5t-25.5 -10.5h-324v-215h317q15 0 25.5 -10.5t10.5 -27.5q0 -15 -10.5 -25.5t-25.5 -10.5h-317v-230h324
q15 0 25.5 -10.5t10.5 -25.5z" />
    <glyph glyph-name="F" unicode="F" horiz-adv-x="550" 
d="M521 629q0 -15 -10.5 -25.5t-25.5 -10.5h-324v-215h317q15 0 25.5 -10.5t10.5 -27.5q0 -15 -10.5 -25.5t-25.5 -10.5h-317v-269q0 -17 -12 -29t-30 -12q-17 0 -29 12t-12 29v572q0 25 17.5 42.5t42.5 17.5h347q15 0 25.5 -10.5t10.5 -27.5z" />
    <glyph glyph-name="G" unicode="G" horiz-adv-x="713" 
d="M656 151q0 -39 -24.5 -69.5t-62.5 -51.5t-84.5 -32t-90.5 -11q-71 0 -133.5 25t-109 70.5t-73.5 109t-27 141.5t27 141.5t73.5 108.5t109 70t133.5 25q75 0 132 -25.5t97 -65.5q6 -5 8.5 -12.5t2.5 -15.5q0 -17 -10.5 -28t-27.5 -11q-15 0 -27 12q-32 34 -78.5 53
t-96.5 19q-55 0 -102 -20t-81.5 -56t-54 -85.5t-19.5 -109.5q0 -59 19.5 -109t54 -86t81.5 -56.5t102 -20.5q30 0 57 6.5t50 17t41.5 23.5t30.5 25v136h-199q-15 0 -25.5 10.5t-10.5 27.5q0 15 10.5 25.5t25.5 10.5h222q25 0 42.5 -17.5t17.5 -42.5v-132v0z" />
    <glyph glyph-name="H" unicode="H" horiz-adv-x="712" 
d="M634 35q0 -17 -12 -29t-30 -12q-17 0 -29 12t-12 29v271h-390v-271q0 -17 -12 -29t-30 -12q-17 0 -29 12t-12 29v598q0 17 12 28.5t31 11.5q17 0 28.5 -11.5t11.5 -28.5v-253h390v253q0 17 12 28.5t31 11.5q17 0 28.5 -11.5t11.5 -28.5v-598v0z" />
    <glyph glyph-name="I" unicode="I" horiz-adv-x="239" 
d="M161 35q0 -17 -12 -29t-30 -12q-17 0 -29 12t-12 29v598q0 17 12 28.5t31 11.5q17 0 28.5 -11.5t11.5 -28.5v-598v0z" />
    <glyph glyph-name="J" unicode="J" horiz-adv-x="475" 
d="M397 201q0 -54 -16.5 -94.5t-45 -66.5t-67 -39t-83.5 -13q-22 0 -42.5 3t-40 10t-37.5 18t-34 26q-12 10 -12 26q0 15 11 27t26 12q14 0 23 -8q20 -17 44.5 -28.5t56.5 -11.5q62 0 98 38.5t36 101.5v431q0 17 12 28.5t31 11.5q17 0 28.5 -11.5t11.5 -28.5v-432v0z" />
    <glyph glyph-name="K" unicode="K" horiz-adv-x="601" 
d="M544 33q0 -14 -11 -27t-29 -13q-8 0 -16 3.5t-14 10.5l-246 293l-67 -76v-189q0 -17 -12 -29t-30 -12q-17 0 -29 12t-12 29v598q0 17 12 28.5t31 11.5q17 0 28.5 -11.5t11.5 -28.5v-311l288 337q6 7 13.5 10t15.5 3q17 0 29 -11t12 -28q0 -14 -9 -23l-228 -260l253 -293
q9 -11 9 -24z" />
    <glyph glyph-name="L" unicode="L" horiz-adv-x="510" 
d="M477 38q0 -17 -10.5 -27.5t-25.5 -10.5h-303q-25 0 -42.5 17.5t-17.5 42.5v573q0 17 12 28.5t31 11.5q17 0 28.5 -11.5t11.5 -28.5v-559h280q15 0 25.5 -10.5t10.5 -25.5z" />
    <glyph glyph-name="M" unicode="M" horiz-adv-x="809" 
d="M731 35q0 -17 -12 -29t-30 -12q-17 0 -29 12t-12 29v514l-224 -542q-2 -6 -7.5 -9.5t-13.5 -3.5q-6 0 -11.5 3.5t-7.5 9.5l-223 542v-514q0 -17 -12 -29t-30 -12q-17 0 -29 12t-12 29v570q0 27 20 47t49 20q20 0 39 -11t27 -31l191 -465l192 465q8 20 26.5 31t39.5 11
q14 0 26.5 -5.5t22 -14.5t15 -21.5t5.5 -25.5v-570v0z" />
    <glyph glyph-name="N" unicode="N" horiz-adv-x="708" 
d="M630 41q0 -9 -3.5 -17.5t-10 -15t-16 -10.5t-20.5 -4q-12 0 -23 5.5t-18 15.5l-378 517v-497q0 -17 -12 -29t-30 -12q-17 0 -29 12t-12 29v588q0 10 4 19t11 16t16.5 11t21.5 4q13 0 24.5 -5.5t19.5 -16.5l372 -505v487q0 17 12 28.5t31 11.5q17 0 28.5 -11.5t11.5 -28.5
v-592v0z" />
    <glyph glyph-name="O" unicode="O" horiz-adv-x="765" 
d="M713 333q0 -74 -24 -137t-67.5 -109.5t-104.5 -72.5t-135 -26t-135 26t-104.5 72.5t-67.5 109.5t-24 137t24 137t67.5 109.5t104.5 72.5t135 26t135 -26t104.5 -72.5t67.5 -109.5t24 -137zM627 333q0 58 -17.5 108t-49.5 86t-77 56.5t-101 20.5t-101.5 -20.5t-77.5 -56.5
t-49 -86t-17 -108t17 -107.5t49 -86t77.5 -57t101.5 -20.5t101 20.5t77 57t49.5 86t17.5 107.5z" />
    <glyph glyph-name="P" unicode="P" horiz-adv-x="587" 
d="M555 466q0 -41 -14 -77.5t-41 -64t-66 -43.5t-88 -16h-185v-230q0 -17 -12 -29t-30 -12q-17 0 -29 12t-12 29v572q0 25 17.5 42.5t42.5 17.5h208q50 0 89 -16t65.5 -43.5t40.5 -64t14 -77.5zM469 466q0 57 -36.5 92t-96.5 35h-175v-254h175q60 0 96.5 35t36.5 92z" />
    <glyph glyph-name="Q" unicode="Q" horiz-adv-x="765" 
d="M713 333q0 -75 -24 -137.5t-68 -108.5l42 -45q9 -11 9 -24q0 -15 -11 -27t-28 -12t-27 12l-44 47q-38 -24 -83 -37t-97 -13q-74 0 -135 26t-104.5 72.5t-67.5 109.5t-24 137t24 137t67.5 109.5t104.5 72.5t135 26t135 -26t104.5 -72.5t67.5 -109.5t24 -137zM627 333
q0 58 -17.5 108t-49.5 86t-77 56.5t-101 20.5t-101.5 -20.5t-77.5 -56.5t-49 -86t-17 -108t17 -107.5t49 -86t77.5 -57t101.5 -20.5q71 0 127 34l-74 80q-5 5 -7.5 11t-2.5 13q0 14 11 26.5t28 12.5q16 0 27 -12l75 -81q29 36 45 83.5t16 103.5z" />
    <glyph glyph-name="R" unicode="R" horiz-adv-x="608" 
d="M555 466q0 -45 -14 -80t-38 -59t-55.5 -38t-65.5 -17l143 -217q6 -11 6 -21q0 -15 -11.5 -27.5t-29.5 -12.5q-10 0 -18.5 4.5t-14.5 13.5l-163 253h-133v-230q0 -17 -12 -29t-30 -12q-17 0 -29 12t-12 29v572q0 25 17.5 42.5t42.5 17.5h208q46 0 84 -14t66 -40.5
t43.5 -63.5t15.5 -83zM336 593h-175v-255h175q60 0 96.5 35.5t36.5 92.5t-36.5 92t-96.5 35z" />
    <glyph glyph-name="S" unicode="S" horiz-adv-x="586" 
d="M540 184q0 -36 -13 -71.5t-42.5 -63t-76.5 -44.5t-114 -17q-37 0 -70.5 6t-62.5 17t-54.5 26t-46.5 34q-13 12 -13 30q0 15 10.5 28.5t28.5 13.5q6 0 12.5 -1.5t11.5 -6.5q35 -31 82 -52t105 -21q45 0 75 11t48 27.5t26 37t8 39.5q0 32 -17 53t-44.5 35.5t-63 24t-73 20
t-73 23.5t-63 33.5t-44.5 50.5t-17 75q0 41 17.5 75t48 58.5t72.5 38t91 13.5q32 0 62 -5t57 -14t51 -22t44 -30q14 -12 14 -30q0 -15 -11 -27.5t-28 -12.5q-14 0 -24 9q-37 30 -81 44t-90 14q-60 0 -98.5 -29t-38.5 -77q0 -28 17 -46t44.5 -31t63 -22.5t73 -20t73 -24.5
t63 -36t44.5 -54t17 -79z" />
    <glyph glyph-name="T" unicode="T" horiz-adv-x="570" 
d="M544 629q0 -15 -10.5 -25.5t-25.5 -10.5h-182v-558q0 -17 -12 -29t-30 -12q-17 0 -29 12t-12 29v558h-181q-15 0 -25.5 10.5t-10.5 27.5q0 15 10.5 25.5t25.5 10.5h446q15 0 25.5 -10.5t10.5 -27.5z" />
    <glyph glyph-name="U" unicode="U" horiz-adv-x="700" 
d="M622 260q0 -62 -17 -112.5t-51 -86t-85 -54.5t-119 -19t-119 19.5t-85 54.5t-51 85t-17 112v374q0 17 12 28.5t31 11.5q17 0 28.5 -11.5t11.5 -28.5v-372q0 -92 48 -145.5t141 -53.5t141 53.5t48 145.5v372q0 17 12 28.5t31 11.5q17 0 28.5 -11.5t11.5 -28.5v-373v0z" />
    <glyph glyph-name="V" unicode="V" horiz-adv-x="658" 
d="M630 629q0 -9 -3 -16l-231 -574q-8 -20 -26.5 -32.5t-39.5 -12.5h-2q-22 0 -40.5 12.5t-26.5 32.5l-230 574q-3 7 -3 16q0 15 12.5 29.5t32.5 14.5q13 0 24 -7t16 -20l216 -555l216 555q5 12 15.5 19.5t24.5 7.5q20 0 32.5 -13.5t12.5 -30.5z" />
    <glyph glyph-name="W" unicode="W" horiz-adv-x="883" 
d="M856 631q0 -4 -2 -12l-166 -584q-5 -18 -20.5 -29.5t-35.5 -11.5h-1q-20 0 -34 12t-19 29l-137 503l-138 -503q-5 -18 -20 -29.5t-35 -11.5h-1q-20 0 -34 11.5t-19 28.5l-166 585q-2 8 -2 12q0 16 11.5 29t31.5 13q15 0 27.5 -9t16.5 -24l141 -529l146 531q4 14 15 22.5
t27 8.5q14 0 25.5 -8.5t15.5 -22.5l146 -531l140 529q4 14 16 23t27 9q19 0 31.5 -12t12.5 -29z" />
    <glyph glyph-name="X" unicode="X" horiz-adv-x="652" 
d="M603 34q0 -8 -3 -15.5t-8.5 -13t-13 -9t-15.5 -3.5q-9 0 -17 3.5t-13 11.5l-207 276l-208 -276q-5 -8 -13 -11.5t-17 -3.5q-17 0 -28.5 11.5t-11.5 28.5q0 6 1.5 12.5t6.5 11.5l216 285l-201 268q-8 11 -8 23q0 14 11 27t29 13q19 0 32 -16l191 -257l191 258q10 15 30 15
q16 0 28.5 -11.5t12.5 -28.5q0 -13 -7 -23l-201 -267l216 -286q7 -10 7 -23z" />
    <glyph glyph-name="Y" unicode="Y" horiz-adv-x="626" 
d="M585 633q0 -12 -6 -21l-224 -330v-247q0 -17 -12 -29t-30 -12q-17 0 -29 12t-12 29v247l-225 330q-7 10 -7 21q0 14 10.5 27t29.5 13q9 0 18.5 -4.5t15.5 -12.5l199 -299l199 299q5 8 14 12t18 4q17 0 29 -11.5t12 -27.5z" />
    <glyph glyph-name="Z" unicode="Z" horiz-adv-x="585" 
d="M542 38q0 -17 -10.5 -27.5t-25.5 -10.5h-421q-16 0 -29 13t-13 33q0 16 9 28l371 519h-345q-15 0 -25.5 10.5t-10.5 27.5q0 15 10.5 25.5t25.5 10.5h414q16 0 29 -13t13 -33q0 -16 -9 -28l-371 -519h352q15 0 25.5 -10.5t10.5 -25.5z" />
    <glyph glyph-name="bracketleft" unicode="[" horiz-adv-x="243" 
d="M232 -162q0 -12 -7.5 -20t-18.5 -8h-106q-25 0 -42.5 17.5t-17.5 42.5v748q0 25 17.5 42.5t42.5 17.5h106q11 0 18.5 -8t7.5 -20q0 -11 -7.5 -19t-18.5 -8h-108v-758h108q11 0 18.5 -8t7.5 -19z" />
    <glyph glyph-name="backslash" unicode="\" horiz-adv-x="296" 
d="M288 -3q0 -10 -7.5 -19.5t-20.5 -9.5q-8 0 -15.5 5.5t-10.5 13.5l-225 674q-1 2 -1.5 4t-0.5 4q0 11 8 20t21 9q8 0 15.5 -5t10.5 -13l225 -674q1 -2 1 -4.5v-4.5z" />
    <glyph glyph-name="bracketright" unicode="]" horiz-adv-x="243" 
d="M203 -130q0 -25 -17.5 -42.5t-42.5 -17.5h-105q-11 0 -19 8t-8 20q0 11 8 19t19 8h107v758h-107q-11 0 -19 8t-8 21q0 11 8 18.5t19 7.5h105q25 0 42.5 -17.5t17.5 -42.5v-748v0z" />
    <glyph glyph-name="asciicircum" unicode="^" horiz-adv-x="432" 
d="M399 354q0 -9 -7.5 -18.5t-20.5 -9.5q-7 0 -13.5 3.5t-9.5 10.5l-132 272l-131 -272q-3 -7 -9.5 -10.5t-13.5 -3.5q-12 0 -20.5 9t-8.5 20q0 6 3 12l144 284q5 10 15 16t23 6q11 0 20.5 -6t14.5 -16l143 -284q3 -6 3 -13z" />
    <glyph glyph-name="underscore" unicode="_" horiz-adv-x="564" 
d="M573 -67q0 -12 -7.5 -20t-18.5 -8h-529q-11 0 -19 8t-8 20q0 11 8 19t19 8h529q11 0 18.5 -8t7.5 -19z" />
    <glyph glyph-name="grave" unicode="`" horiz-adv-x="226" 
d="M203 571q0 -8 -5.5 -14.5t-14.5 -6.5q-6 0 -13 5l-126 108q-8 6 -8 17q0 10 7.5 17.5t18.5 7.5t18 -7l118 -114q5 -7 5 -13z" />
    <glyph glyph-name="a" unicode="a" horiz-adv-x="527" 
d="M452 31q0 -15 -11 -26t-27 -11q-15 0 -26 11t-11 26v2v11v11q-30 -33 -70.5 -50t-89.5 -17q-31 0 -61 10t-54 30.5t-39 50.5t-15 69q0 40 15 70t39 50t54 29.5t61 9.5q50 0 90.5 -16t69.5 -50v87q0 49 -34.5 75.5t-87.5 26.5q-36 0 -67 -11.5t-59 -34.5q-10 -8 -21 -8
q-12 0 -22.5 8t-10.5 22q0 13 10 22q19 17 40 29.5t43.5 21t46.5 12.5t50 4q38 0 72 -9t59.5 -28.5t40.5 -50.5t15 -75v-301zM377 102v91q-22 30 -57.5 45t-75.5 15q-53 0 -86 -29.5t-33 -76.5q0 -46 33 -75.5t86 -29.5q40 0 75.5 15t57.5 45z" />
    <glyph glyph-name="b" unicode="b" horiz-adv-x="575" 
d="M528 241q0 -59 -16 -106t-44.5 -79.5t-68 -50t-86.5 -17.5q-51 0 -93.5 23.5t-69.5 60.5v-41q0 -15 -11 -26t-27 -11q-15 0 -26 11t-11 26v606q0 14 11 25t28 11q14 0 25 -11t11 -25v-227q29 40 71 62.5t92 22.5q47 0 86.5 -18t68 -51t44.5 -80t16 -105zM450 241
q0 40 -10.5 74.5t-30.5 59.5t-49 39t-66 14q-45 0 -84.5 -23t-59.5 -55v-219q20 -32 59.5 -54t84.5 -22q37 0 66 14t49 39t30.5 59t10.5 74z" />
    <glyph glyph-name="c" unicode="c" horiz-adv-x="495" 
d="M455 72q0 -5 -1.5 -10.5t-6.5 -10.5q-28 -29 -66 -46t-93 -17q-54 0 -98.5 19.5t-76 53.5t-49 80.5t-17.5 100.5t17.5 100t49 80t76 53.5t98.5 19.5q27 0 50 -4.5t42.5 -13t36 -20t30.5 -25.5q8 -10 8 -21q0 -13 -10 -23.5t-24 -10.5q-15 0 -26 11q-22 21 -47.5 30.5
t-55.5 9.5q-39 0 -69.5 -14t-52.5 -39t-33.5 -59t-11.5 -74t11.5 -74.5t33.5 -59.5t52.5 -39t69.5 -14q61 0 103 41q10 9 25 9q14 0 24.5 -9.5t10.5 -23.5z" />
    <glyph glyph-name="d" unicode="d" horiz-adv-x="575" 
d="M500 31q0 -15 -11 -26t-27 -11q-15 0 -26 11t-11 26v41q-27 -37 -69.5 -60.5t-93.5 -23.5q-47 0 -86.5 17.5t-68 50t-44.5 79.5t-16 106q0 58 15.5 105t44 80t68 51t87.5 18q49 0 91.5 -22.5t71.5 -62.5v227q0 14 11 25t28 11q14 0 25 -11t11 -25v-606zM425 131v219
q-20 32 -60 55t-85 23q-36 0 -65 -14t-49 -39t-30.5 -59.5t-10.5 -74.5t10.5 -74t30.5 -59t49 -39t65 -14q45 0 85 22t60 54z" />
    <glyph glyph-name="e" unicode="e" horiz-adv-x="563" 
d="M516 258q0 -17 -12 -29t-29 -12h-349q2 -34 15 -64.5t35.5 -53t53.5 -36t70 -13.5q35 0 68 11t62 34q8 5 17 5q10 0 20 -8.5t10 -22.5q0 -16 -11 -24q-36 -29 -79 -43t-94 -14q-54 0 -99 18.5t-77.5 52t-51 80t-18.5 103.5q0 52 18 98.5t49.5 80.5t75 54t95.5 20
q45 0 82 -13.5t65.5 -38.5t48 -59t28.5 -76q2 -11 4.5 -24t2.5 -26zM443 272q0 27 -9.5 55.5t-29 52t-49.5 38.5t-71 15q-39 0 -68 -15t-48.5 -38t-30 -51.5t-11.5 -56.5h317z" />
    <glyph glyph-name="f" unicode="f" horiz-adv-x="283" 
d="M332 631q0 -13 -9.5 -21.5t-20.5 -8.5q-12 0 -25.5 7t-29.5 7q-37 0 -56.5 -24.5t-19.5 -70.5v-37h72q14 0 23 -9.5t9 -24.5q0 -14 -9 -23t-23 -9h-72v-386q0 -15 -11 -26t-27 -11q-15 0 -26 11t-11 26v386h-54q-14 0 -23 9.5t-9 24.5q0 14 9 23t23 9h54v37
q0 75 37.5 116t102.5 41q12 0 28.5 -2.5t31.5 -7.5t25.5 -14t10.5 -22z" />
    <glyph glyph-name="g" unicode="g" horiz-adv-x="574" 
d="M499 14q0 -60 -19.5 -100.5t-51.5 -64.5t-73.5 -34.5t-85.5 -10.5q-27 0 -51 2.5t-46.5 9.5t-43 18t-40.5 28q-11 9 -11 25q0 13 9.5 22.5t23.5 9.5q13 0 21 -7q29 -26 62 -36t76 -10q30 0 58 7.5t49.5 25t34.5 45t13 67.5v69q-26 -37 -68.5 -61.5t-93.5 -24.5
q-47 0 -86.5 17t-68 49.5t-44.5 78.5t-16 105q0 58 15.5 104.5t44 79t68 50t87.5 17.5q49 0 91 -22.5t71 -62.5v43q0 14 11 25t28 11q14 0 25 -11t11 -25v-439zM424 139v211q-10 16 -25 30t-34 24.5t-41 17t-44 6.5q-36 0 -65 -13.5t-49 -38t-30.5 -58.5t-10.5 -74
t10.5 -73.5t30.5 -58t49 -38.5t65 -14q22 0 44 6.5t41 17.5t34 25t25 30z" />
    <glyph glyph-name="h" unicode="h" horiz-adv-x="552" 
d="M477 31q0 -15 -11 -26t-27 -11q-15 0 -26 11t-11 26v287q0 32 -8 53t-22 34t-34.5 18t-44.5 5q-22 0 -43 -6t-39.5 -16.5t-34 -24t-26.5 -28.5v-322q0 -15 -11 -26t-27 -11q-15 0 -26 11t-11 26v606q0 14 11 25t28 11q14 0 25 -11t11 -25v-224q13 15 31 29.5t40.5 26.5
t48.5 19t53 7q76 0 115 -37.5t39 -116.5v-310v0z" />
    <glyph glyph-name="i" unicode="i" horiz-adv-x="225" 
d="M112 653q21 0 36 -15t15 -36t-15 -35.5t-36 -14.5q-20 0 -35 14.5t-15 35.5t15 36t35 15zM150 31q0 -15 -11 -26t-27 -11q-15 0 -26 11t-11 26v422q0 14 11 25t28 11q14 0 25 -11t11 -25v-422z" />
    <glyph glyph-name="j" unicode="j" horiz-adv-x="225" 
d="M112 653q21 0 36 -15t15 -36t-15.5 -35.5t-35.5 -14.5t-35 14.5t-15 35.5t15 36t35 15zM150 -47q0 -71 -37 -110t-106 -39q-17 0 -35 3t-33 9t-25 15t-10 21q0 13 10 21.5t22 8.5t26.5 -8t34.5 -8q34 0 56 20.5t22 66.5v500q0 14 11 25t28 11q14 0 25 -11t11 -25v-500z
" />
    <glyph glyph-name="k" unicode="k" horiz-adv-x="514" 
d="M464 31q0 -13 -10 -25.5t-27 -12.5q-8 0 -16 3.5t-13 10.5l-168 210l-80 -79v-107q0 -15 -11 -26t-27 -11q-15 0 -26 11t-11 26v606q0 14 11 25t28 11q14 0 25 -11t11 -25v-411l250 254q10 10 23 10q14 0 24.5 -11t10.5 -25q0 -13 -9 -22l-164 -168l171 -211q8 -10 8 -22
z" />
    <glyph glyph-name="l" unicode="l" horiz-adv-x="225" 
d="M150 31q0 -15 -11 -26t-27 -11q-15 0 -26 11t-11 26v606q0 14 11 25t28 11q14 0 25 -11t11 -25v-606v0z" />
    <glyph glyph-name="m" unicode="m" horiz-adv-x="808" 
d="M733 31q0 -15 -11 -26t-27 -11q-15 0 -26 11t-11 26v297q0 46 -21 73t-68 27q-38 0 -73.5 -22.5t-54.5 -51.5v-323q0 -15 -11 -26t-27 -11q-15 0 -26 11t-11 26v297q0 46 -20.5 73t-68.5 27q-37 0 -72 -23t-55 -52v-322q0 -15 -11 -26t-27 -11q-15 0 -26 11t-11 26v422
q0 14 11 25t28 11q14 0 25 -11t11 -25v-40q7 12 22.5 26t36.5 26.5t45.5 21t51.5 8.5q56 0 87.5 -26t42.5 -64q10 16 27 32.5t38 29t46 20.5t51 8q66 0 100.5 -36.5t34.5 -109.5v-318v0z" />
    <glyph glyph-name="n" unicode="n" horiz-adv-x="551" 
d="M476 31q0 -15 -11 -26t-27 -11q-15 0 -26 11t-11 26v285q0 64 -29.5 88t-78.5 24q-22 0 -43 -6t-40 -16.5t-34.5 -24t-25.5 -28.5v-322q0 -15 -11 -26t-27 -11q-15 0 -26 11t-11 26v422q0 14 11 25t28 11q14 0 25 -11t11 -25v-40q13 15 31 29.5t40.5 26.5t48 19t52.5 7
q76 0 115 -38.5t39 -117.5v-308v0z" />
    <glyph glyph-name="o" unicode="o" 
d="M525 242q0 -53 -16.5 -99t-47.5 -80.5t-75.5 -54.5t-99.5 -20t-99.5 20t-75.5 54.5t-47.5 80.5t-16.5 99q0 52 16.5 98.5t47.5 80.5t75.5 54t99.5 20t99.5 -20t75.5 -54t47.5 -80.5t16.5 -98.5zM446 242q0 37 -10.5 70.5t-31 59t-50 41t-68.5 15.5t-69 -15.5t-50.5 -41
t-31 -59t-10.5 -70.5t10.5 -71t31 -59.5t50.5 -41t69 -15.5t68.5 15.5t50 41t31 59.5t10.5 71z" />
    <glyph glyph-name="p" unicode="p" 
d="M528 242q0 -59 -15.5 -106t-44 -80t-68 -50.5t-87.5 -17.5q-50 0 -92 22t-71 63v-227q0 -14 -11 -25t-27 -11q-15 0 -26 11t-11 25v607q0 14 11 25t28 11q14 0 25 -11t11 -25v-42q26 37 69 60.5t94 23.5q48 0 87.5 -17.5t68 -50t44 -79.5t15.5 -106zM449 242
q0 40 -10.5 74t-30.5 59t-49 39t-65 14q-45 0 -84.5 -22.5t-59.5 -54.5v-218q20 -32 59.5 -55t84.5 -23q36 0 65 14t49 39t30.5 59.5t10.5 74.5z" />
    <glyph glyph-name="q" unicode="q" 
d="M496 -154q0 -14 -11 -25t-27 -11q-15 0 -26 11t-11 25v227q-29 -41 -71 -63t-91 -22q-48 0 -87.5 17.5t-68 50.5t-44 80t-15.5 106t15.5 106t44 79.5t68 50t87.5 17.5q51 0 93.5 -23.5t68.5 -60.5v42q0 14 11 25t28 11q14 0 25 -11t11 -25v-607zM421 133v218
q-9 16 -24.5 30t-34.5 24.5t-41 16.5t-44 6q-36 0 -65 -14t-48.5 -39t-30 -59t-10.5 -74t10.5 -74.5t30 -59.5t48.5 -39t65 -14q22 0 44 6.5t41 17t34.5 24.5t24.5 30z" />
    <glyph glyph-name="r" unicode="r" horiz-adv-x="330" 
d="M317 456q0 -17 -11 -28.5t-28 -12.5q-37 -2 -70.5 -19.5t-57.5 -53.5v-311q0 -15 -11 -26t-27 -11h-1q-15 1 -25.5 11.5t-10.5 25.5v422q0 14 11 25t28 11q14 0 25 -11t11 -25v-48q11 14 25 29.5t31 28t36.5 20.5t40.5 8q14 0 24 -10t10 -25z" />
    <glyph glyph-name="s" unicode="s" horiz-adv-x="465" 
d="M418 134q0 -30 -12 -57t-36 -46.5t-59.5 -31t-82.5 -11.5q-26 0 -50 3.5t-46.5 11t-43.5 19t-40 28.5q-11 9 -11 23t10 23t24 9q12 0 22 -7q26 -21 62 -35t76 -14q56 0 85 23.5t29 59.5q0 29 -22 44.5t-55.5 25.5t-72 18.5t-72 24t-55.5 41t-22 70.5q0 28 12 53.5
t35 44.5t56.5 30t76.5 11q26 0 49 -4t43.5 -11t38 -18t33.5 -24q10 -9 10 -22t-9 -21.5t-21 -8.5t-20 7q-23 18 -55 29.5t-69 11.5q-50 0 -78.5 -22t-28.5 -54q0 -26 22 -40t55.5 -23.5t72 -18t72 -24.5t55.5 -43.5t22 -74.5z" />
    <glyph glyph-name="t" unicode="t" horiz-adv-x="294" 
d="M286 31q0 -12 -8 -20t-20.5 -13.5t-28.5 -7.5t-32 -2q-54 0 -80.5 29.5t-26.5 83.5v316h-54q-14 0 -23 9.5t-9 24.5q0 14 9 23t23 9h54v102q0 14 11 25t28 11q14 0 25 -11t11 -25v-102h72q14 0 23 -9.5t9 -24.5q0 -14 -9 -23t-23 -9h-72v-300q0 -27 12 -44.5t37 -17.5
q10 0 20.5 3.5t19.5 3.5q13 0 22.5 -9t9.5 -22z" />
    <glyph glyph-name="u" unicode="u" horiz-adv-x="551" 
d="M476 31q0 -15 -11 -26t-27 -11q-15 0 -26 11t-11 26v37q-28 -32 -73 -56t-99 -24q-76 0 -115 37.5t-39 116.5v311q0 14 11 25t28 11q14 0 25 -11t11 -25v-288q0 -32 7.5 -53t22 -34t34.5 -18t44 -5q44 0 83 22t60 51v325q0 14 11 25t28 11q14 0 25 -11t11 -25v-422v0z
" />
    <glyph glyph-name="v" unicode="v" horiz-adv-x="490" 
d="M472 452q0 -7 -3 -13l-170 -410q-7 -16 -21.5 -25.5t-33.5 -9.5h-1q-17 0 -31 9.5t-21 25.5l-170 410q-3 6 -3 13q0 14 10.5 25.5t27.5 11.5q11 0 20.5 -6t14.5 -17l154 -379l153 379q5 11 14.5 17t20.5 6q17 0 28 -11t11 -26z" />
    <glyph glyph-name="w" unicode="w" horiz-adv-x="734" 
d="M711 453q0 -4 -2 -10l-133 -416q-5 -14 -17 -23.5t-29 -9.5h-1q-16 0 -28 9.5t-17 23.5l-117 361l-117 -361q-5 -14 -17.5 -23.5t-29.5 -9.5h-1q-16 0 -27.5 9.5t-16.5 23.5l-133 416q-2 6 -2 10q0 13 10 24.5t26 11.5q12 0 22.5 -7t14.5 -18l112 -366l120 363
q5 13 15 20.5t25 7.5q13 0 23 -7.5t15 -20.5l120 -363l112 366q4 11 14 18t22 7q16 0 26.5 -11t10.5 -25z" />
    <glyph glyph-name="x" unicode="x" horiz-adv-x="486" 
d="M445 28q0 -12 -9.5 -23.5t-25.5 -11.5q-8 0 -15 3.5t-12 10.5l-140 191l-140 -191q-11 -14 -27 -14q-14 0 -24.5 10.5t-10.5 24.5q0 12 7 20l149 200l-139 186q-7 10 -7 19q0 12 9.5 24t26.5 12t27 -13l129 -177l128 176q5 7 12 10.5t15 3.5q14 0 25 -10.5t11 -24.5
q0 -13 -7 -21l-138 -185l150 -200q6 -9 6 -20z" />
    <glyph glyph-name="y" unicode="y" horiz-adv-x="490" 
d="M472 452q0 -7 -3 -13l-224 -537q-22 -52 -58.5 -75t-83.5 -23q-10 0 -20.5 1t-19 4t-14 10t-5.5 19q0 15 10 24.5t23 9.5q7 0 13 -0.5t12 -0.5q23 -1 40 10t31 41l32 73l-184 444q-3 6 -3 13q0 14 10.5 25.5t27.5 11.5q11 0 20.5 -6t14.5 -17l154 -379l153 379
q5 11 14.5 17t20.5 6q17 0 28 -11t11 -26z" />
    <glyph glyph-name="z" unicode="z" horiz-adv-x="472" 
d="M426 34q0 -15 -9 -24.5t-22 -9.5h-314q-14 0 -24 10.5t-10 27.5q0 7 2.5 13.5t6.5 11.5l262 354h-240q-14 0 -23 9.5t-9 24.5q0 14 9 23t23 9h310q13 0 23 -10t10 -27q0 -13 -8 -24l-265 -357h247q13 0 22 -9t9 -22z" />
    <glyph glyph-name="braceleft" unicode="{" horiz-adv-x="260" 
d="M249 -162q0 -12 -7.5 -20t-18.5 -8h-41q-24 0 -46.5 9.5t-40 27t-28 42t-10.5 55.5v206q0 28 -8 45t-26 22q-11 3 -17.5 10t-6.5 18t6.5 17t17.5 9q18 5 26 22t8 45v205q0 31 10.5 56t28 42.5t40 27t46.5 9.5h41q11 0 18.5 -8t7.5 -20q0 -11 -7.5 -19t-18.5 -8h-41
q-27 0 -46.5 -22.5t-19.5 -57.5v-211q0 -32 -10.5 -54.5t-35.5 -33.5q25 -11 35.5 -33.5t10.5 -54.5v-211q0 -35 19.5 -57.5t46.5 -22.5h41q11 0 18.5 -8t7.5 -19z" />
    <glyph glyph-name="bar" unicode="|" horiz-adv-x="211" 
d="M133 1q0 -11 -8 -19t-20 -8q-11 0 -19 8t-8 19v666q0 11 8 18.5t21 7.5q11 0 18.5 -7.5t7.5 -18.5v-666v0z" />
    <glyph glyph-name="braceright" unicode="}" horiz-adv-x="260" 
d="M261 244q0 -11 -6.5 -17.5t-17.5 -9.5q-18 -5 -26 -22t-8 -45v-206q0 -31 -10.5 -55.5t-28 -42t-40 -27t-46.5 -9.5h-40q-11 0 -19 8t-8 20q0 11 8 19t19 8h40q27 0 46.5 22.5t19.5 57.5v211q0 32 10.5 54.5t35.5 33.5q-25 11 -35.5 33.5t-10.5 54.5v211q0 35 -19.5 57.5
t-46.5 22.5h-40q-11 0 -19 8t-8 21q0 11 8 18.5t19 7.5h40q24 0 46.5 -9.5t40 -27t28 -42.5t10.5 -56v-205q0 -28 8 -45t26 -22q11 -3 17.5 -9.5t6.5 -17.5z" />
    <glyph glyph-name="asciitilde" unicode="~" horiz-adv-x="503" 
d="M472 633q-5 -41 -13.5 -79t-24 -67t-39.5 -46.5t-58 -17.5q-31 0 -50.5 14t-32.5 35t-21 46t-17 46t-20.5 35t-30.5 14q-17 0 -29.5 -12t-22 -33.5t-16.5 -52t-11 -66.5q-2 -11 -9.5 -17t-18.5 -6q-14 0 -21 8.5t-7 21.5q5 42 14 80t24.5 67t39 46t57.5 17q31 0 51 -14
t32.5 -35.5t21 -46t17 -46t20 -35.5t30.5 -14q16 0 29 12t23 33.5t16.5 52t10.5 67.5q1 11 9 17t19 6q13 0 20.5 -9t7.5 -21z" />
    <glyph glyph-name="uni00A0" unicode="&#xa0;" horiz-adv-x="258" 
 />
    <glyph glyph-name="exclamdown" unicode="&#xa1;" horiz-adv-x="230" 
d="M170 438q-1 -23 -16.5 -39t-38.5 -16t-39 16t-16 39q0 11 4.5 21t12 17.5t17.5 12t21 4.5t21 -4.5t17.5 -12t12 -17.5t4.5 -21zM161 -145q1 -18 -13 -31.5t-31 -13.5q-20 0 -34 13.5t-13 31.5l1 31t2.5 77t3 100.5t3 100.5t2.5 77l1 31q1 13 10 21.5t23 8.5
q13 0 21.5 -8.5t9.5 -21.5l1 -31t2.5 -77t3.5 -100.5t3.5 -100.5t2.5 -77z" />
    <glyph glyph-name="cent" unicode="&#xa2;" horiz-adv-x="495" 
d="M455 73q0 -14 -8 -22q-26 -26 -58 -42t-78 -20v-67q0 -11 -8.5 -19.5t-19.5 -8.5q-14 0 -22.5 8.5t-8.5 19.5v69q-47 6 -84.5 27.5t-64.5 54.5t-41.5 76t-14.5 93q0 49 14.5 91.5t41.5 75.5t64.5 55t84.5 28v51q0 11 8.5 19.5t22.5 8.5q11 0 19.5 -8.5t8.5 -19.5v-49
q46 -4 78 -20t58 -42q8 -10 8 -21q0 -14 -10.5 -24t-24.5 -10q-7 0 -13.5 3t-11.5 8q-20 19 -40 27.5t-44 11.5v-371q24 2 44 11.5t40 28.5q10 9 25 9q13 0 24 -9t11 -23zM252 59v364q-60 -14 -93.5 -63t-33.5 -118q0 -70 33.5 -119.5t93.5 -63.5z" />
    <glyph glyph-name="sterling" unicode="&#xa3;" horiz-adv-x="518" 
d="M505 48q0 -15 -13 -26t-32.5 -19t-42.5 -12t-44 -4q-34 0 -55.5 7t-39.5 16t-37 16t-47 7q-20 0 -44.5 -8t-49.5 -20q-4 -2 -7.5 -2.5t-7.5 -0.5q-14 0 -23.5 9t-9.5 24q0 10 4.5 18.5t13.5 13.5q53 28 81 64.5t28 76.5q0 17 -4 31.5t-11 28.5h-125q-11 0 -18.5 8
t-7.5 20q0 11 7.5 18.5t18.5 7.5h86q-14 16 -27.5 32.5t-24.5 36t-18 41.5t-7 48q0 41 18 77t48.5 62.5t71 42t86.5 15.5q29 0 56 -5.5t51 -16.5t44.5 -27t35.5 -37q3 -5 4.5 -10t1.5 -10q0 -15 -11 -25.5t-28 -10.5q-21 0 -35 17q-10 12 -22 22t-26 17.5t-30 11.5t-33 4
q-29 0 -54.5 -9t-45.5 -25.5t-31.5 -40t-11.5 -53.5q0 -27 8 -48.5t20 -40t26 -35t27 -33.5h130q11 0 18.5 -8t7.5 -20q0 -11 -7.5 -18.5t-18.5 -7.5h-102q3 -10 5 -20.5t2 -22.5q0 -46 -22.5 -78t-53.5 -54q11 4 24.5 6.5t27.5 2.5q24 0 42 -6.5t34.5 -14t33.5 -14t38 -6.5
q14 0 26.5 3.5t23 8t20 8t17.5 3.5q14 0 27.5 -10t13.5 -26z" />
    <glyph glyph-name="currency" unicode="&#xa4;" horiz-adv-x="598" 
d="M556 110q0 -12 -9.5 -22.5t-23.5 -10.5q-13 0 -22 9l-55 53q-29 -22 -65.5 -34t-81.5 -12t-82.5 12.5t-66.5 34.5l-53 -54q-5 -5 -10.5 -7t-11.5 -2q-12 0 -23 9t-11 23q0 13 9 22l55 55q-22 31 -33.5 68t-11.5 79t11.5 79.5t34.5 67.5l-56 56q-10 10 -10 23
q0 12 9.5 22.5t23.5 10.5q13 0 23 -10l56 -56q29 22 65.5 34t81.5 12q44 0 80.5 -12t65.5 -34l56 56q9 9 21 9t23 -9.5t11 -23.5q0 -13 -9 -22l-56 -56q23 -30 35 -67.5t12 -79.5t-12 -79.5t-34 -68.5l55 -54q9 -9 9 -21zM461 333q0 33 -10.5 64t-31 54.5t-51 37.5t-69.5 14
t-69 -14t-51 -37.5t-31.5 -54.5t-10.5 -64q0 -34 10.5 -65t31.5 -55t51 -38t69 -14t69.5 14t51 38t31 55t10.5 65z" />
    <glyph glyph-name="yen" unicode="&#xa5;" horiz-adv-x="626" 
d="M611 148q0 -11 -7.5 -18.5t-17.5 -7.5h-231v-87q0 -17 -11.5 -29t-28.5 -12q-18 0 -30.5 11t-12.5 30v87h-230q-11 0 -18.5 8t-7.5 20q0 10 7.5 17.5t18.5 7.5h230v107h-231q-11 0 -18 7.5t-7 19.5q0 11 7 18t18 7h195l-189 278q-7 8 -7 21q0 14 10.5 27t29.5 13
q9 0 18.5 -4.5t15.5 -12.5l199 -299l199 299q5 8 14 12t18 4q17 0 29 -11.5t12 -27.5q0 -12 -6 -21l-189 -278h196q11 0 18 -7.5t7 -19.5q0 -11 -7 -18t-18 -7h-231v-107h231q10 0 17.5 -8t7.5 -19z" />
    <glyph glyph-name="brokenbar" unicode="&#xa6;" horiz-adv-x="211" 
d="M133 398q0 -11 -8 -19t-20 -8q-11 0 -19 8t-8 19v263q0 11 8 18.5t21 7.5q11 0 18.5 -7.5t7.5 -18.5v-263zM133 7q0 -11 -8 -19t-20 -8q-11 0 -19 8t-8 19v263q0 11 8 18.5t21 7.5q11 0 18.5 -7.5t7.5 -18.5v-263z" />
    <glyph glyph-name="section" unicode="&#xa7;" horiz-adv-x="468" 
d="M418 66q0 -35 -14 -62.5t-39 -46t-60 -28.5t-77 -10q-31 0 -56.5 5t-47.5 13.5t-40 19.5t-33 24q-11 8 -11 23q0 13 8.5 22t21.5 9q10 0 18 -6q25 -22 61 -38.5t79 -16.5q52 0 84.5 22.5t32.5 64.5q0 31 -22 47.5t-55.5 27t-72 19.5t-72 24t-55.5 41t-22 70q0 27 9.5 48
t25.5 36.5t36.5 26.5t43.5 17q-53 17 -84 45t-31 78q0 28 12 52.5t35 43t56.5 29.5t76.5 11q30 0 61 -6.5t55.5 -17t40.5 -24.5t16 -29q0 -12 -7.5 -21t-19.5 -9q-9 0 -16 6q-26 23 -61 34t-67 11q-48 0 -78.5 -21.5t-30.5 -58.5q0 -28 22 -43t55.5 -24t72 -17.5t72 -24.5
t55.5 -43t22 -74q0 -42 -23 -75t-69 -53q42 -16 67 -44t25 -77zM344 305q0 22 -10 37t-26 25.5t-36 17.5t-41 12q-65 -17 -88.5 -42t-23.5 -57q0 -21 12 -35.5t32 -24.5t45.5 -17t52.5 -14q40 17 61.5 40t21.5 58z" />
    <glyph glyph-name="dieresis" unicode="&#xa8;" horiz-adv-x="272" 
d="M286 604q0 -20 -14 -33.5t-33 -13.5t-33 13.5t-14 33.5q0 19 14 32.5t33 13.5t33 -13.5t14 -32.5zM79 604q0 -20 -13.5 -33.5t-32.5 -13.5q-20 0 -33.5 13.5t-13.5 33.5q0 19 13.5 32.5t33.5 13.5q19 0 32.5 -13.5t13.5 -32.5z" />
    <glyph glyph-name="copyright" unicode="&#xa9;" horiz-adv-x="778" 
d="M734 334q0 -71 -27 -134t-74 -110t-109.5 -74t-134.5 -27q-71 0 -134 27t-110 74t-74 110t-27 134q0 72 27 134.5t74 109.5t110 74t134 27q72 0 134.5 -27t109.5 -74t74 -109.5t27 -134.5zM703 334q0 65 -24.5 122t-67.5 100t-100 67.5t-122 24.5t-122 -24.5t-100 -67.5
t-67.5 -100t-24.5 -122t24.5 -122t67.5 -100t100 -67.5t122 -24.5t122 24.5t100 67.5t67.5 100t24.5 122zM535 191q0 -8 -4 -12q-28 -29 -63 -43.5t-77 -14.5q-43 0 -81 16.5t-66 45t-44.5 67.5t-16.5 85t16.5 85t44.5 67.5t66 44.5t81 16q42 0 77.5 -15t61.5 -44
q4 -4 4 -11t-4.5 -12.5t-12.5 -5.5q-7 0 -11 6q-22 24 -52.5 36.5t-62.5 12.5q-34 0 -65 -13t-54.5 -36.5t-37.5 -57t-14 -73.5q0 -39 14 -72.5t37.5 -57.5t54.5 -37.5t65 -13.5q32 0 63 13.5t51 36.5q5 5 12 5q6 0 12 -5t6 -13z" />
    <glyph glyph-name="ordfeminine" unicode="&#xaa;" horiz-adv-x="378" 
d="M317 348q0 -12 -8 -20t-21 -8q-12 0 -20 8t-8 20v13q-18 -20 -44.5 -31.5t-62.5 -11.5q-21 0 -41 7t-35.5 20t-25.5 32.5t-10 44.5q0 26 10 45.5t25.5 32t35.5 19t41 6.5q36 0 62.5 -11.5t44.5 -30.5v55q0 31 -23.5 48t-55.5 17q-22 0 -43.5 -7.5t-40.5 -23.5
q-6 -6 -15 -6q-8 0 -15.5 6.5t-7.5 15.5t7 15q13 12 27.5 20.5t30 14t31.5 8t33 2.5q26 0 49.5 -6t41 -19t28 -34.5t10.5 -51.5v-189zM260 394v56q-14 18 -36.5 28t-48.5 10q-33 0 -54.5 -18.5t-21.5 -47.5q0 -30 21.5 -48t54.5 -18q26 0 48.5 10t36.5 28z" />
    <glyph glyph-name="guillemotleft" unicode="&#xab;" horiz-adv-x="439" 
d="M381 85q0 -11 -8.5 -20t-20.5 -9q-13 0 -20 9l-118 133q-9 10 -13 21.5t-4 23.5t4 23.5t13 21.5l117 129q7 9 20 9q11 0 20 -8t9 -20q0 -10 -6 -17l-125 -138l125 -141q7 -9 7 -17zM237 85q0 -11 -8.5 -20t-20.5 -9q-13 0 -20 9l-118 133q-17 19 -17 44q0 26 17 45
l118 130q7 9 20 9q10 0 19.5 -7.5t9.5 -19.5q0 -11 -7 -18l-125 -138l125 -141q7 -9 7 -17z" />
    <glyph glyph-name="logicalnot" unicode="&#xac;" horiz-adv-x="504" 
d="M470 232q0 -11 -8 -19t-20 -8q-11 0 -19 8t-8 19v172h-366q-11 0 -18.5 8t-7.5 20q0 10 7.5 17.5t18.5 7.5h361q25 0 42.5 -17.5t17.5 -42.5v-165v0z" />
    <glyph glyph-name="uni00AD" unicode="&#xad;" horiz-adv-x="300" 
d="M238 275q14 0 23 -9t9 -23t-9 -24t-23 -10h-176q-14 0 -23 9t-9 23t8.5 24t23.5 10h176v0z" />
    <glyph glyph-name="registered" unicode="&#xae;" horiz-adv-x="494" 
d="M459 465q0 -44 -16.5 -82.5t-45 -67.5t-67.5 -45.5t-83 -16.5t-82.5 16.5t-67.5 45.5t-45.5 67.5t-16.5 82.5t16.5 83t45.5 67.5t67.5 45t82.5 16.5t83 -16.5t67.5 -45t45 -67.5t16.5 -83zM430 465q0 38 -14.5 71.5t-39 58t-58 39t-71.5 14.5t-71.5 -14.5t-58.5 -39
t-39.5 -58t-14.5 -71.5t14.5 -71.5t39.5 -58.5t58.5 -39.5t71.5 -14.5t71.5 14.5t58 39.5t39 58.5t14.5 71.5zM342 512q0 -20 -7.5 -34t-18 -22.5t-21 -12t-15.5 -3.5l51 -76q3 -5 3 -8q0 -6 -5 -12t-13 -6t-13 7l-61 94h-44v-87q0 -6 -4.5 -10.5t-12.5 -4.5q-6 0 -10.5 4.5
t-4.5 10.5v207q0 11 8 19t19 8h72q31 0 54 -20t23 -54zM309 512q0 20 -14 33t-30 13h-67v-90h67q16 0 30 12.5t14 31.5z" />
    <glyph glyph-name="macron" unicode="&#xaf;" horiz-adv-x="363" 
d="M363 597q0 -11 -6.5 -18t-16.5 -7h-317q-10 0 -16.5 7t-6.5 18q0 10 6.5 16.5t16.5 6.5h317q10 0 16.5 -6.5t6.5 -16.5z" />
    <glyph glyph-name="degree" unicode="&#xb0;" horiz-adv-x="290" 
d="M267 555q0 -26 -9.5 -48t-26.5 -38.5t-39.5 -26t-47.5 -9.5t-47 9.5t-38.5 26t-26 38.5t-9.5 48q0 25 9.5 47.5t26 39t38.5 26t47 9.5t47.5 -9.5t39.5 -26t26.5 -39t9.5 -47.5zM219 555q0 30 -22 52t-53 22q-30 0 -51 -22t-21 -52q0 -31 21 -52.5t51 -21.5q31 0 53 21.5
t22 52.5z" />
    <glyph glyph-name="plusminus" unicode="&#xb1;" horiz-adv-x="499" 
d="M476 351q0 -12 -7 -19.5t-18 -7.5h-173v-192q0 -12 -8 -20t-21 -8q-12 0 -20 8t-8 20v192h-173q-11 0 -18 7.5t-7 19.5q0 11 7 18t18 7h173v186q0 11 8 19t22 8q11 0 19 -8t8 -19v-186h173q11 0 18 -7t7 -18zM476 27q0 -12 -7 -19.5t-18 -7.5h-403q-11 0 -18 7.5t-7 19.5
q0 11 7 18t18 7h403q11 0 18 -7t7 -18z" />
    <glyph glyph-name="uni00B2" unicode="&#xb2;" horiz-adv-x="388" 
d="M347 447q0 -11 -7 -18.5t-16 -7.5h-258q-9 0 -15.5 6.5t-6.5 16.5q0 11 4.5 17.5t12.5 11.5q53 38 94 70.5t68.5 60.5t41.5 53t14 48q0 19 -7 33t-19 23t-27.5 13t-31.5 4q-29 0 -55 -10.5t-45 -26.5q-8 -6 -16 -6q-9 0 -17 6.5t-8 18.5t8 19q14 12 30 21t33.5 15t35.5 9
t36 3q27 0 53 -7t46 -21.5t32 -37t12 -52.5t-15 -59.5t-41.5 -58.5t-63.5 -59t-81 -62h186q9 0 16 -7t7 -16z" />
    <glyph glyph-name="uni00B3" unicode="&#xb3;" horiz-adv-x="388" 
d="M343 530q0 -51 -40.5 -83.5t-110.5 -32.5q-23 0 -49 5.5t-47.5 15t-36 21.5t-14.5 26q0 10 7.5 18.5t18.5 8.5q9 0 15 -6q21 -19 48.5 -29.5t55.5 -10.5q44 0 68.5 19t24.5 51q0 38 -30 53.5t-74 15.5h-15q-8 0 -16.5 5.5t-8.5 18.5q0 12 8.5 18t16.5 6h14q42 0 70 14.5
t28 49.5q0 31 -26 47.5t-63 16.5q-27 0 -51.5 -8.5t-45.5 -28.5q-5 -5 -14 -5t-17 6.5t-8 17.5t8 17q26 24 58.5 37t74.5 13q64 0 104 -28.5t40 -78.5q0 -22 -8.5 -38t-21.5 -27.5t-28.5 -18t-30.5 -9.5q14 -1 31 -7.5t31.5 -18.5t24 -29.5t9.5 -41.5z" />
    <glyph glyph-name="acute" unicode="&#xb4;" horiz-adv-x="226" 
d="M190 680q0 -11 -8 -17l-126 -108q-7 -5 -12 -5q-8 0 -14.5 6t-6.5 15q0 8 5 13l118 114q7 7 18 7q9 0 17.5 -7t8.5 -18z" />
    <glyph glyph-name="mu" unicode="&#xb5;" horiz-adv-x="565" 
d="M550 21q0 -11 -7.5 -21.5t-25.5 -10.5q-20 0 -37.5 3.5t-32.5 12.5t-26 25.5t-17 43.5q-26 -35 -66 -60.5t-87 -25.5q-43 0 -66.5 14t-34.5 34v-190q0 -14 -11 -25t-27 -11q-15 0 -26 11t-11 25v607q0 14 11 25t28 11q14 0 25 -11t11 -25v-288q0 -60 29.5 -86t80.5 -26
q21 0 42 6t39.5 16.5t33.5 24t26 28.5v325q0 14 11 25t28 11q14 0 25 -11t11 -25v-340q0 -31 11.5 -41.5t25.5 -15t25.5 -9.5t11.5 -26z" />
    <glyph glyph-name="paragraph" unicode="&#xb6;" horiz-adv-x="449" 
d="M378 -85q0 -8 -6.5 -14.5t-16.5 -6.5q-9 0 -15.5 6.5t-6.5 14.5v707h-89v-707q0 -8 -6.5 -14.5t-16.5 -6.5q-9 0 -15.5 6.5t-6.5 14.5v408q-36 0 -67 13.5t-54.5 37t-37 54.5t-13.5 67t13.5 67t37 54.5t54.5 37t67 13.5h137q17 0 29.5 -12.5t12.5 -29.5v-710v0z" />
    <glyph glyph-name="periodcentered" unicode="&#xb7;" horiz-adv-x="230" 
d="M170 244q0 -11 -4.5 -20.5t-12 -17t-17.5 -12t-21 -4.5t-21 4.5t-17.5 12t-12 17t-4.5 20.5q0 23 16 39t39 16t39 -16t16 -39z" />
    <glyph glyph-name="cedilla" unicode="&#xb8;" horiz-adv-x="205" 
d="M205 -111q0 -37 -30.5 -58.5t-73.5 -21.5q-15 0 -32.5 2.5t-32.5 7.5t-25 12.5t-10 18.5q0 8 6.5 14t14.5 6q5 0 8 -2q17 -11 34.5 -15.5t34.5 -4.5q24 0 42.5 11t18.5 31q0 16 -9 25.5t-28 9.5q-13 0 -24.5 -8t-22.5 -8q-9 0 -15 7t-6 15v3.5t1 3.5l20 53q3 9 11 14.5
t18 5.5q7 1 11.5 -3.5t4.5 -10.5q0 -4 -1 -6l-18 -46q16 11 37 11q29 0 47.5 -18t18.5 -49z" />
    <glyph glyph-name="uni00B9" unicode="&#xb9;" horiz-adv-x="235" 
d="M175 444q0 -12 -8.5 -20.5t-22.5 -8.5q-12 0 -20.5 8.5t-8.5 20.5v299l-53 -55q-8 -8 -17 -8q-10 0 -17.5 8t-7.5 19q0 10 7 17l84 85q8 8 16.5 13t19.5 5q12 0 20 -7.5t8 -17.5v-358v0z" />
    <glyph glyph-name="ordmasculine" unicode="&#xba;" horiz-adv-x="405" 
d="M365 483q0 -34 -11.5 -64t-32.5 -52.5t-51 -35.5t-68 -13q-37 0 -67 13t-51 35.5t-32.5 52.5t-11.5 64t11.5 64t32.5 52.5t51 35.5t67 13q38 0 68 -13t51 -35.5t32.5 -52.5t11.5 -64zM306 483q0 49 -27 82t-77 33q-49 0 -75.5 -33t-26.5 -82q0 -50 26.5 -83.5t75.5 -33.5
q50 0 77 33.5t27 83.5z" />
    <glyph glyph-name="guillemotright" unicode="&#xbb;" horiz-adv-x="439" 
d="M386 242q0 -24 -17 -44l-118 -133q-8 -9 -20 -9q-11 0 -20 8t-9 20q0 11 7 18l125 141l-125 138q-7 7 -7 17t7.5 19t20.5 9q12 0 21 -9l118 -130q17 -20 17 -45zM242 243q0 -25 -17 -45l-118 -133q-8 -9 -20 -9q-11 0 -20 8t-9 20q0 11 7 18l125 141l-125 138q-7 9 -7 17
q0 11 8 19.5t21 8.5q12 0 21 -9l117 -129q9 -10 13 -21.5t4 -23.5z" />
    <glyph glyph-name="onequarter" unicode="&#xbc;" horiz-adv-x="770" 
d="M739 126q0 -11 -7 -18.5t-16 -7.5h-41v-77q0 -12 -8.5 -20.5t-21.5 -8.5q-12 0 -20.5 8.5t-8.5 20.5v77h-181q-8 0 -14.5 6.5t-6.5 16.5q0 9 5 17l10 16l148 221q11 16 24 22.5t31 6.5q9 0 17 -3t14 -8.5t9 -13t3 -15.5v-217h41q9 0 16 -7t7 -16zM577 653q0 -6 -4 -12
l-409 -640q-8 -10 -19 -10q-10 0 -17 7t-7 17q0 6 4 11l409 641q7 10 19 10q11 0 17.5 -8t6.5 -16zM175 290q0 -12 -8.5 -20.5t-22.5 -8.5q-12 0 -20.5 8.5t-8.5 20.5v299l-53 -55q-8 -8 -17 -8q-10 0 -17.5 8t-7.5 19q0 10 7 17l84 85q8 8 16.5 13t19.5 5q12 0 20 -7.5
t8 -17.5v-358zM616 149v198l-136 -198h136z" />
    <glyph glyph-name="onehalf" unicode="&#xbd;" horiz-adv-x="807" 
d="M765 26q0 -11 -7 -18.5t-16 -7.5h-258q-9 0 -15.5 6.5t-6.5 16.5q0 11 4.5 17.5t12.5 11.5q53 38 94 70.5t68.5 60.5t41.5 53t14 48q0 19 -7 33t-19 23t-27.5 13t-31.5 4q-29 0 -55 -10.5t-45 -26.5q-8 -6 -16 -6q-9 0 -17 6.5t-8 18.5t8 19q14 12 30 21t33.5 15t35.5 9
t36 3q27 0 53 -7t46 -21.5t32 -37t12 -52.5t-15 -59.5t-41.5 -58.5t-63.5 -59t-81 -62h186q9 0 16 -7t7 -16zM577 653q0 -6 -4 -12l-409 -640q-8 -10 -19 -10q-10 0 -17 7t-7 17q0 6 4 11l409 641q7 10 19 10q11 0 17.5 -8t6.5 -16zM175 290q0 -12 -8.5 -20.5t-22.5 -8.5
q-12 0 -20.5 8.5t-8.5 20.5v299l-53 -55q-8 -8 -17 -8q-10 0 -17.5 8t-7.5 19q0 10 7 17l84 85q8 8 16.5 13t19.5 5q12 0 20 -7.5t8 -17.5v-358z" />
    <glyph glyph-name="threequarters" unicode="&#xbe;" horiz-adv-x="878" 
d="M848 126q0 -11 -7 -18.5t-16 -7.5h-41v-77q0 -12 -8.5 -20.5t-21.5 -8.5q-12 0 -20.5 8.5t-8.5 20.5v77h-181q-8 0 -14.5 6.5t-6.5 16.5q0 9 5 17l10 16l148 221q11 16 24 22.5t31 6.5q9 0 17 -3t14 -8.5t9 -13t3 -15.5v-217h41q9 0 16 -7t7 -16zM685 653q0 -6 -4 -12
l-409 -640q-8 -10 -19 -10q-10 0 -17 7t-7 17q0 6 4 11l409 641q7 10 19 10q11 0 17.5 -8t6.5 -16zM343 376q0 -51 -40.5 -83.5t-110.5 -32.5q-23 0 -49 5.5t-47.5 15t-36 21.5t-14.5 26q0 10 7.5 18.5t18.5 8.5q9 0 15 -6q21 -19 48.5 -29.5t55.5 -10.5q44 0 68.5 19
t24.5 51q0 38 -30 53.5t-74 15.5h-15q-8 0 -16.5 5.5t-8.5 18.5q0 12 8.5 18t16.5 6h14q42 0 70 14.5t28 49.5q0 31 -26 47.5t-63 16.5q-27 0 -51.5 -8.5t-45.5 -28.5q-5 -5 -14 -5t-17 6.5t-8 17.5t8 17q26 24 58.5 37t74.5 13q64 0 104 -28.5t40 -78.5q0 -22 -8.5 -38
t-21.5 -27.5t-28.5 -18t-30.5 -9.5q14 -1 31 -7.5t31.5 -18.5t24 -29.5t9.5 -41.5zM725 149v198l-136 -198h136z" />
    <glyph glyph-name="questiondown" unicode="&#xbf;" horiz-adv-x="394" 
d="M293 437q0 -22 -16 -38t-39 -16t-39 16t-16 38q0 23 16 39.5t39 16.5t39 -16.5t16 -39.5zM435 -90q0 -14 -10 -26q-19 -19 -41 -34t-46.5 -25t-52.5 -15.5t-58 -5.5q-46 0 -82 12t-61.5 33t-39 49.5t-13.5 60.5q0 38 14.5 65t36 48t46.5 38t46.5 33.5t36 34.5t14.5 43
q0 11 -7 22.5t-7 22.5q0 12 8.5 22.5t24.5 10.5q15 0 25 -10.5t16.5 -24.5t9.5 -28t3 -21q0 -32 -13.5 -55t-33.5 -41t-43.5 -33.5t-43.5 -32t-33.5 -36.5t-13.5 -46q0 -38 29 -65.5t89 -27.5q46 0 80 16t60 43q9 10 24 10q14 0 25 -11t11 -26z" />
    <glyph glyph-name="Agrave" unicode="&#xc0;" horiz-adv-x="658" 
d="M630 38q0 -15 -12.5 -29.5t-32.5 -14.5q-13 0 -24 7t-16 20l-50 127h-332l-50 -127q-5 -13 -16 -20t-24 -7q-20 0 -32.5 13.5t-12.5 30.5q0 8 3 16l230 574q8 20 26.5 32.5t41.5 12.5q22 0 40 -12.5t26 -32.5l232 -574q3 -8 3 -16zM470 222l-141 359l-142 -359h283z
M363 738q0 -8 -5.5 -14.5t-14.5 -6.5q-6 0 -13 5l-126 108q-8 6 -8 17q0 10 7.5 17.5t18.5 7.5t18 -7l118 -114q5 -7 5 -13z" />
    <glyph glyph-name="Aacute" unicode="&#xc1;" horiz-adv-x="658" 
d="M630 38q0 -15 -12.5 -29.5t-32.5 -14.5q-13 0 -24 7t-16 20l-50 127h-332l-50 -127q-5 -13 -16 -20t-24 -7q-20 0 -32.5 13.5t-12.5 30.5q0 8 3 16l230 574q8 20 26.5 32.5t41.5 12.5q22 0 40 -12.5t26 -32.5l232 -574q3 -8 3 -16zM470 222l-141 359l-142 -359h283z
M462 847q0 -11 -8 -17l-126 -108q-7 -5 -12 -5q-8 0 -14.5 6t-6.5 15q0 8 5 13l118 114q7 7 18 7q9 0 17.5 -7t8.5 -18z" />
    <glyph glyph-name="Acircumflex" unicode="&#xc2;" horiz-adv-x="658" 
d="M630 38q0 -15 -12.5 -29.5t-32.5 -14.5q-13 0 -24 7t-16 20l-50 127h-332l-50 -127q-5 -13 -16 -20t-24 -7q-20 0 -32.5 13.5t-12.5 30.5q0 8 3 16l230 574q8 20 26.5 32.5t41.5 12.5q22 0 40 -12.5t26 -32.5l232 -574q3 -8 3 -16zM470 222l-141 359l-142 -359h283z
M449 737q0 -7 -5.5 -14t-16.5 -7q-10 0 -16 8l-82 105l-79 -104q-6 -8 -17 -8q-8 0 -15 5.5t-7 14.5q0 3 4 11l65 99q8 12 21 19t29 7q14 0 27 -7t21 -19l68 -99q3 -5 3 -11z" />
    <glyph glyph-name="Atilde" unicode="&#xc3;" horiz-adv-x="658" 
d="M630 38q0 -15 -12.5 -29.5t-32.5 -14.5q-13 0 -24 7t-16 20l-50 127h-332l-50 -127q-5 -13 -16 -20t-24 -7q-20 0 -32.5 13.5t-12.5 30.5q0 8 3 16l230 574q8 20 26.5 32.5t41.5 12.5q22 0 40 -12.5t26 -32.5l232 -574q3 -8 3 -16zM470 222l-141 359l-142 -359h283z
M485 834q-2 -25 -9.5 -46t-19.5 -36t-29 -23t-38 -8q-27 0 -43 14.5t-28 31.5t-23 31.5t-29 14.5t-30.5 -15.5t-16.5 -48.5q-1 -10 -8 -16t-17 -6q-9 0 -14.5 5.5t-5.5 13.5q0 25 7.5 46.5t20.5 36.5t30.5 23.5t37.5 8.5q27 0 43 -14.5t27.5 -31.5t23 -31.5t29.5 -14.5
t30.5 15.5t16.5 48.5q1 10 8 16t17 6t15 -6.5t5 -14.5z" />
    <glyph glyph-name="Adieresis" unicode="&#xc4;" horiz-adv-x="658" 
d="M630 38q0 -15 -12.5 -29.5t-32.5 -14.5q-13 0 -24 7t-16 20l-50 127h-332l-50 -127q-5 -13 -16 -20t-24 -7q-20 0 -32.5 13.5t-12.5 30.5q0 8 3 16l230 574q8 20 26.5 32.5t41.5 12.5q22 0 40 -12.5t26 -32.5l232 -574q3 -8 3 -16zM470 222l-141 359l-142 -359h283z
M480 771q0 -20 -14 -33.5t-33 -13.5t-33 13.5t-14 33.5q0 19 14 32.5t33 13.5t33 -13.5t14 -32.5zM273 771q0 -20 -13.5 -33.5t-32.5 -13.5q-20 0 -33.5 13.5t-13.5 33.5q0 19 13.5 32.5t33.5 13.5q19 0 32.5 -13.5t13.5 -32.5z" />
    <glyph glyph-name="Aring" unicode="&#xc5;" horiz-adv-x="658" 
d="M630 38q0 -15 -12.5 -29.5t-32.5 -14.5q-13 0 -24 7t-16 20l-50 127h-332l-50 -127q-5 -13 -16 -20t-24 -7q-20 0 -32.5 13.5t-12.5 30.5q0 8 3 16l230 574q8 20 26.5 32.5t41.5 12.5q22 0 40 -12.5t26 -32.5l232 -574q3 -8 3 -16zM470 222l-141 359l-142 -359h283z
M427 788q0 -20 -7.5 -38t-21 -31.5t-31.5 -21t-38 -7.5t-38 7.5t-31.5 21t-21 31.5t-7.5 38t7.5 38t21 31.5t31.5 21.5t38 8t38 -8t31.5 -21.5t21 -31.5t7.5 -38zM387 788q0 25 -16.5 42t-41.5 17q-24 0 -41 -17t-17 -42q0 -24 17 -41.5t41 -17.5q25 0 41.5 17.5t16.5 41.5z
" />
    <glyph glyph-name="AE" unicode="&#xc6;" horiz-adv-x="947" 
d="M899 38q0 -17 -10.5 -27.5t-25.5 -10.5h-347q-25 0 -42.5 17.5t-17.5 42.5v88h-263l-81 -133q-5 -9 -14 -13.5t-19 -4.5q-17 0 -29.5 12t-12.5 29q0 10 6 21l348 557q14 23 39.5 37t52.5 14h380q15 0 25.5 -10.5t10.5 -27.5q0 -15 -10.5 -25.5t-25.5 -10.5h-324v-215h317
q15 0 25.5 -10.5t10.5 -27.5q0 -15 -10.5 -25.5t-25.5 -10.5h-317v-230h324q15 0 25.5 -10.5t10.5 -25.5zM456 222v359l-222 -359h222z" />
    <glyph glyph-name="Ccedilla" unicode="&#xc7;" horiz-adv-x="676" 
d="M394 678q75 0 130 -27t93 -68q11 -13 11 -29t-11 -28t-28 -12q-8 0 -15.5 3t-12.5 10q-29 35 -74.5 56t-92.5 21q-55 0 -102 -20t-81.5 -56t-54 -85.5t-19.5 -109.5q0 -59 19.5 -109t54 -86t81.5 -56t102 -20q48 0 91.5 19.5t75.5 56.5q5 6 12.5 9.5t15.5 3.5
q17 0 28 -12t11 -29q0 -8 -3 -15t-8 -13q-38 -41 -89.5 -66.5t-123.5 -27.5l-15 -39q16 11 37 11q29 0 47.5 -18t18.5 -49q0 -37 -30.5 -58.5t-73.5 -21.5q-15 0 -32.5 2.5t-32.5 7.5t-25 12.5t-10 18.5q0 8 6.5 14t14.5 6q5 0 8 -2q17 -11 34.5 -15.5t34.5 -4.5
q24 0 42.5 11t18.5 31q0 16 -9 25.5t-28 9.5q-13 0 -24 -8t-22 -8q-9 0 -15.5 6.5t-6.5 15.5v3.5t1 3.5l17 48q-66 6 -122.5 33t-98 72t-65 105.5t-23.5 132.5q0 77 26.5 140.5t73 109t109 70.5t134.5 25z" />
    <glyph glyph-name="Egrave" unicode="&#xc8;" horiz-adv-x="569" 
d="M521 38q0 -17 -10.5 -27.5t-25.5 -10.5h-347q-25 0 -42.5 17.5t-17.5 42.5v547q0 25 17.5 42.5t42.5 17.5h347q15 0 25.5 -10.5t10.5 -27.5q0 -15 -10.5 -25.5t-25.5 -10.5h-324v-215h317q15 0 25.5 -10.5t10.5 -27.5q0 -15 -10.5 -25.5t-25.5 -10.5h-317v-230h324
q15 0 25.5 -10.5t10.5 -25.5zM330 738q0 -8 -5.5 -14.5t-14.5 -6.5q-6 0 -13 5l-126 108q-8 6 -8 17q0 10 7.5 17.5t18.5 7.5t18 -7l118 -114q5 -7 5 -13z" />
    <glyph glyph-name="Eacute" unicode="&#xc9;" horiz-adv-x="569" 
d="M521 38q0 -17 -10.5 -27.5t-25.5 -10.5h-347q-25 0 -42.5 17.5t-17.5 42.5v547q0 25 17.5 42.5t42.5 17.5h347q15 0 25.5 -10.5t10.5 -27.5q0 -15 -10.5 -25.5t-25.5 -10.5h-324v-215h317q15 0 25.5 -10.5t10.5 -27.5q0 -15 -10.5 -25.5t-25.5 -10.5h-317v-230h324
q15 0 25.5 -10.5t10.5 -25.5zM429 847q0 -11 -8 -17l-126 -108q-7 -5 -12 -5q-8 0 -14.5 6t-6.5 15q0 8 5 13l118 114q7 7 18 7q9 0 17.5 -7t8.5 -18z" />
    <glyph glyph-name="Ecircumflex" unicode="&#xca;" horiz-adv-x="569" 
d="M521 38q0 -17 -10.5 -27.5t-25.5 -10.5h-347q-25 0 -42.5 17.5t-17.5 42.5v547q0 25 17.5 42.5t42.5 17.5h347q15 0 25.5 -10.5t10.5 -27.5q0 -15 -10.5 -25.5t-25.5 -10.5h-324v-215h317q15 0 25.5 -10.5t10.5 -27.5q0 -15 -10.5 -25.5t-25.5 -10.5h-317v-230h324
q15 0 25.5 -10.5t10.5 -25.5zM414 737q0 -7 -5.5 -14t-16.5 -7q-10 0 -16 8l-82 105l-79 -104q-6 -8 -17 -8q-8 0 -15 5.5t-7 14.5q0 3 4 11l65 99q8 12 21 19t29 7q14 0 27 -7t21 -19l68 -99q3 -5 3 -11z" />
    <glyph glyph-name="Edieresis" unicode="&#xcb;" horiz-adv-x="569" 
d="M521 38q0 -17 -10.5 -27.5t-25.5 -10.5h-347q-25 0 -42.5 17.5t-17.5 42.5v547q0 25 17.5 42.5t42.5 17.5h347q15 0 25.5 -10.5t10.5 -27.5q0 -15 -10.5 -25.5t-25.5 -10.5h-324v-215h317q15 0 25.5 -10.5t10.5 -27.5q0 -15 -10.5 -25.5t-25.5 -10.5h-317v-230h324
q15 0 25.5 -10.5t10.5 -25.5zM446 771q0 -20 -14 -33.5t-33 -13.5t-33 13.5t-14 33.5q0 19 14 32.5t33 13.5t33 -13.5t14 -32.5zM239 771q0 -20 -13.5 -33.5t-32.5 -13.5q-20 0 -33.5 13.5t-13.5 33.5q0 19 13.5 32.5t33.5 13.5q19 0 32.5 -13.5t13.5 -32.5z" />
    <glyph glyph-name="Igrave" unicode="&#xcc;" horiz-adv-x="239" 
d="M161 35q0 -17 -12 -29t-30 -12q-17 0 -29 12t-12 29v598q0 17 12 28.5t31 11.5q17 0 28.5 -11.5t11.5 -28.5v-598v0zM154 738q0 -8 -5.5 -14.5t-14.5 -6.5q-6 0 -13 5l-126 108q-8 6 -8 17q0 10 7.5 17.5t18.5 7.5t18 -7l118 -114q5 -7 5 -13z" />
    <glyph glyph-name="Iacute" unicode="&#xcd;" horiz-adv-x="239" 
d="M161 35q0 -17 -12 -29t-30 -12q-17 0 -29 12t-12 29v598q0 17 12 28.5t31 11.5q17 0 28.5 -11.5t11.5 -28.5v-598v0zM253 847q0 -11 -8 -17l-126 -108q-7 -5 -12 -5q-8 0 -14.5 6t-6.5 15q0 8 5 13l118 114q7 7 18 7q9 0 17.5 -7t8.5 -18z" />
    <glyph glyph-name="Icircumflex" unicode="&#xce;" horiz-adv-x="239" 
d="M161 35q0 -17 -12 -29t-30 -12q-17 0 -29 12t-12 29v598q0 17 12 28.5t31 11.5q17 0 28.5 -11.5t11.5 -28.5v-598v0zM240 737q0 -7 -5.5 -14t-16.5 -7q-10 0 -16 8l-82 105l-79 -104q-6 -8 -17 -8q-8 0 -15 5.5t-7 14.5q0 3 4 11l65 99q8 12 21 19t29 7q14 0 27 -7
t21 -19l68 -99q3 -5 3 -11z" />
    <glyph glyph-name="Idieresis" unicode="&#xcf;" horiz-adv-x="239" 
d="M161 35q0 -17 -12 -29t-30 -12q-17 0 -29 12t-12 29v598q0 17 12 28.5t31 11.5q17 0 28.5 -11.5t11.5 -28.5v-598v0zM271 771q0 -20 -14 -33.5t-33 -13.5t-33 13.5t-14 33.5q0 19 14 32.5t33 13.5t33 -13.5t14 -32.5zM64 771q0 -20 -13.5 -33.5t-32.5 -13.5
q-20 0 -33.5 13.5t-13.5 33.5q0 19 13.5 32.5t33.5 13.5q19 0 32.5 -13.5t13.5 -32.5z" />
    <glyph glyph-name="Eth" unicode="&#xd0;" horiz-adv-x="728" 
d="M676 333q0 -71 -24.5 -132t-69 -105.5t-107.5 -70t-141 -25.5h-168q-25 0 -42.5 17.5t-17.5 42.5v239h-72q-13 0 -21.5 9t-8.5 23q0 12 8.5 20.5t21.5 8.5h72v247q0 25 17.5 42.5t42.5 17.5h168q78 0 141 -25.5t107.5 -70.5t69 -106t24.5 -132zM590 333q0 54 -17 101.5
t-49.5 82.5t-80 55.5t-109.5 20.5h-145v-233h146q12 0 20.5 -8.5t8.5 -22.5q0 -13 -8.5 -21.5t-20.5 -8.5h-146v-225h145q61 0 108.5 20.5t80.5 55.5t50 82t17 101z" />
    <glyph glyph-name="Ntilde" unicode="&#xd1;" horiz-adv-x="708" 
d="M630 41q0 -9 -3.5 -17.5t-10 -15t-16 -10.5t-20.5 -4q-12 0 -23 5.5t-18 15.5l-378 517v-497q0 -17 -12 -29t-30 -12q-17 0 -29 12t-12 29v588q0 10 4 19t11 16t16.5 11t21.5 4q13 0 24.5 -5.5t19.5 -16.5l372 -505v487q0 17 12 28.5t31 11.5q17 0 28.5 -11.5t11.5 -28.5
v-592v0zM508 834q-2 -25 -9.5 -46t-19.5 -36t-29 -23t-38 -8q-27 0 -43 14.5t-28 31.5t-23 31.5t-29 14.5t-30.5 -15.5t-16.5 -48.5q-1 -10 -8 -16t-17 -6q-9 0 -14.5 5.5t-5.5 13.5q0 25 7.5 46.5t20.5 36.5t30.5 23.5t37.5 8.5q27 0 43 -14.5t27.5 -31.5t23 -31.5
t29.5 -14.5t30.5 15.5t16.5 48.5q1 10 8 16t17 6t15 -6.5t5 -14.5z" />
    <glyph glyph-name="Ograve" unicode="&#xd2;" horiz-adv-x="765" 
d="M713 333q0 -74 -24 -137t-67.5 -109.5t-104.5 -72.5t-135 -26t-135 26t-104.5 72.5t-67.5 109.5t-24 137t24 137t67.5 109.5t104.5 72.5t135 26t135 -26t104.5 -72.5t67.5 -109.5t24 -137zM627 333q0 58 -17.5 108t-49.5 86t-77 56.5t-101 20.5t-101.5 -20.5t-77.5 -56.5
t-49 -86t-17 -108t17 -107.5t49 -86t77.5 -57t101.5 -20.5t101 20.5t77 57t49.5 86t17.5 107.5zM417 738q0 -8 -5.5 -14.5t-14.5 -6.5q-6 0 -13 5l-126 108q-8 6 -8 17q0 10 7.5 17.5t18.5 7.5t18 -7l118 -114q5 -7 5 -13z" />
    <glyph glyph-name="Oacute" unicode="&#xd3;" horiz-adv-x="765" 
d="M713 333q0 -74 -24 -137t-67.5 -109.5t-104.5 -72.5t-135 -26t-135 26t-104.5 72.5t-67.5 109.5t-24 137t24 137t67.5 109.5t104.5 72.5t135 26t135 -26t104.5 -72.5t67.5 -109.5t24 -137zM627 333q0 58 -17.5 108t-49.5 86t-77 56.5t-101 20.5t-101.5 -20.5t-77.5 -56.5
t-49 -86t-17 -108t17 -107.5t49 -86t77.5 -57t101.5 -20.5t101 20.5t77 57t49.5 86t17.5 107.5zM516 847q0 -11 -8 -17l-126 -108q-7 -5 -12 -5q-8 0 -14.5 6t-6.5 15q0 8 5 13l118 114q7 7 18 7q9 0 17.5 -7t8.5 -18z" />
    <glyph glyph-name="Ocircumflex" unicode="&#xd4;" horiz-adv-x="765" 
d="M713 333q0 -74 -24 -137t-67.5 -109.5t-104.5 -72.5t-135 -26t-135 26t-104.5 72.5t-67.5 109.5t-24 137t24 137t67.5 109.5t104.5 72.5t135 26t135 -26t104.5 -72.5t67.5 -109.5t24 -137zM627 333q0 58 -17.5 108t-49.5 86t-77 56.5t-101 20.5t-101.5 -20.5t-77.5 -56.5
t-49 -86t-17 -108t17 -107.5t49 -86t77.5 -57t101.5 -20.5t101 20.5t77 57t49.5 86t17.5 107.5zM503 737q0 -7 -5.5 -14t-16.5 -7q-10 0 -16 8l-82 105l-79 -104q-6 -8 -17 -8q-8 0 -15 5.5t-7 14.5q0 3 4 11l65 99q8 12 21 19t29 7q14 0 27 -7t21 -19l68 -99q3 -5 3 -11z
" />
    <glyph glyph-name="Otilde" unicode="&#xd5;" horiz-adv-x="765" 
d="M713 333q0 -74 -24 -137t-67.5 -109.5t-104.5 -72.5t-135 -26t-135 26t-104.5 72.5t-67.5 109.5t-24 137t24 137t67.5 109.5t104.5 72.5t135 26t135 -26t104.5 -72.5t67.5 -109.5t24 -137zM627 333q0 58 -17.5 108t-49.5 86t-77 56.5t-101 20.5t-101.5 -20.5t-77.5 -56.5
t-49 -86t-17 -108t17 -107.5t49 -86t77.5 -57t101.5 -20.5t101 20.5t77 57t49.5 86t17.5 107.5zM538 834q-2 -25 -9.5 -46t-19.5 -36t-29 -23t-38 -8q-27 0 -43 14.5t-28 31.5t-23 31.5t-29 14.5t-30.5 -15.5t-16.5 -48.5q-1 -10 -8 -16t-17 -6q-9 0 -14.5 5.5t-5.5 13.5
q0 25 7.5 46.5t20.5 36.5t30.5 23.5t37.5 8.5q27 0 43 -14.5t27.5 -31.5t23 -31.5t29.5 -14.5t30.5 15.5t16.5 48.5q1 10 8 16t17 6t15 -6.5t5 -14.5z" />
    <glyph glyph-name="Odieresis" unicode="&#xd6;" horiz-adv-x="765" 
d="M713 333q0 -74 -24 -137t-67.5 -109.5t-104.5 -72.5t-135 -26t-135 26t-104.5 72.5t-67.5 109.5t-24 137t24 137t67.5 109.5t104.5 72.5t135 26t135 -26t104.5 -72.5t67.5 -109.5t24 -137zM627 333q0 58 -17.5 108t-49.5 86t-77 56.5t-101 20.5t-101.5 -20.5t-77.5 -56.5
t-49 -86t-17 -108t17 -107.5t49 -86t77.5 -57t101.5 -20.5t101 20.5t77 57t49.5 86t17.5 107.5zM532 771q0 -20 -14 -33.5t-33 -13.5t-33 13.5t-14 33.5q0 19 14 32.5t33 13.5t33 -13.5t14 -32.5zM325 771q0 -20 -13.5 -33.5t-32.5 -13.5q-20 0 -33.5 13.5t-13.5 33.5
q0 19 13.5 32.5t33.5 13.5q19 0 32.5 -13.5t13.5 -32.5z" />
    <glyph glyph-name="multiply" unicode="&#xd7;" horiz-adv-x="499" 
d="M424 185q0 -12 -9 -19.5t-17 -7.5q-10 0 -18 8l-131 131l-130 -131q-8 -8 -18 -8t-18.5 8t-8.5 19q0 10 8 18l130 131l-130 130q-8 8 -8 18t7.5 18.5t19.5 8.5q11 0 18 -7l130 -131l131 131q7 7 17 7t18.5 -8t8.5 -19t-7 -18l-130 -130l130 -131q7 -7 7 -18z" />
    <glyph glyph-name="Oslash" unicode="&#xd8;" horiz-adv-x="765" 
d="M713 333q0 -74 -24 -137t-67.5 -109.5t-104.5 -72.5t-135 -26q-50 0 -93 11.5t-80 33.5l-21 -31q-7 -10 -21 -10q-11 0 -20 7.5t-9 18.5q0 7 5 14l22 33q-54 47 -84 115.5t-30 152.5q0 74 24 137t67.5 109.5t104.5 72.5t135 26q48 0 89.5 -11t77.5 -31l19 28q8 11 22 11
q11 0 19.5 -7.5t8.5 -18.5q0 -10 -4 -15l-20 -29q57 -47 88 -117t31 -155zM627 333q0 63 -20 116t-58 89l-297 -441q27 -17 59.5 -26t70.5 -9q56 0 101 20.5t77 57t49.5 86t17.5 107.5zM506 572q-26 15 -57.5 23.5t-66.5 8.5q-56 0 -101.5 -20.5t-77.5 -56.5t-49 -86
t-17 -108q0 -62 19 -113.5t54 -87.5z" />
    <glyph glyph-name="Ugrave" unicode="&#xd9;" horiz-adv-x="700" 
d="M622 260q0 -62 -17 -112.5t-51 -86t-85 -54.5t-119 -19t-119 19.5t-85 54.5t-51 85t-17 112v374q0 17 12 28.5t31 11.5q17 0 28.5 -11.5t11.5 -28.5v-372q0 -92 48 -145.5t141 -53.5t141 53.5t48 145.5v372q0 17 12 28.5t31 11.5q17 0 28.5 -11.5t11.5 -28.5v-373v0z
M384 738q0 -8 -5.5 -14.5t-14.5 -6.5q-6 0 -13 5l-126 108q-8 6 -8 17q0 10 7.5 17.5t18.5 7.5t18 -7l118 -114q5 -7 5 -13z" />
    <glyph glyph-name="Uacute" unicode="&#xda;" horiz-adv-x="700" 
d="M622 260q0 -62 -17 -112.5t-51 -86t-85 -54.5t-119 -19t-119 19.5t-85 54.5t-51 85t-17 112v374q0 17 12 28.5t31 11.5q17 0 28.5 -11.5t11.5 -28.5v-372q0 -92 48 -145.5t141 -53.5t141 53.5t48 145.5v372q0 17 12 28.5t31 11.5q17 0 28.5 -11.5t11.5 -28.5v-373v0z
M483 847q0 -11 -8 -17l-126 -108q-7 -5 -12 -5q-8 0 -14.5 6t-6.5 15q0 8 5 13l118 114q7 7 18 7q9 0 17.5 -7t8.5 -18z" />
    <glyph glyph-name="Ucircumflex" unicode="&#xdb;" horiz-adv-x="700" 
d="M622 260q0 -62 -17 -112.5t-51 -86t-85 -54.5t-119 -19t-119 19.5t-85 54.5t-51 85t-17 112v374q0 17 12 28.5t31 11.5q17 0 28.5 -11.5t11.5 -28.5v-372q0 -92 48 -145.5t141 -53.5t141 53.5t48 145.5v372q0 17 12 28.5t31 11.5q17 0 28.5 -11.5t11.5 -28.5v-373v0z
M471 737q0 -7 -5.5 -14t-16.5 -7q-10 0 -16 8l-82 105l-79 -104q-6 -8 -17 -8q-8 0 -15 5.5t-7 14.5q0 3 4 11l65 99q8 12 21 19t29 7q14 0 27 -7t21 -19l68 -99q3 -5 3 -11z" />
    <glyph glyph-name="Udieresis" unicode="&#xdc;" horiz-adv-x="700" 
d="M622 260q0 -62 -17 -112.5t-51 -86t-85 -54.5t-119 -19t-119 19.5t-85 54.5t-51 85t-17 112v374q0 17 12 28.5t31 11.5q17 0 28.5 -11.5t11.5 -28.5v-372q0 -92 48 -145.5t141 -53.5t141 53.5t48 145.5v372q0 17 12 28.5t31 11.5q17 0 28.5 -11.5t11.5 -28.5v-373v0z
M501 771q0 -20 -14 -33.5t-33 -13.5t-33 13.5t-14 33.5q0 19 14 32.5t33 13.5t33 -13.5t14 -32.5zM294 771q0 -20 -13.5 -33.5t-32.5 -13.5q-20 0 -33.5 13.5t-13.5 33.5q0 19 13.5 32.5t33.5 13.5q19 0 32.5 -13.5t13.5 -32.5z" />
    <glyph glyph-name="Yacute" unicode="&#xdd;" horiz-adv-x="626" 
d="M585 633q0 -12 -6 -21l-224 -330v-247q0 -17 -12 -29t-30 -12q-17 0 -29 12t-12 29v247l-225 330q-7 10 -7 21q0 14 10.5 27t29.5 13q9 0 18.5 -4.5t15.5 -12.5l199 -299l199 299q5 8 14 12t18 4q17 0 29 -11.5t12 -27.5zM446 847q0 -11 -8 -17l-126 -108q-7 -5 -12 -5
q-8 0 -14.5 6t-6.5 15q0 8 5 13l118 114q7 7 18 7q9 0 17.5 -7t8.5 -18z" />
    <glyph glyph-name="Thorn" unicode="&#xde;" horiz-adv-x="587" 
d="M555 346q0 -41 -14 -77.5t-41 -63.5t-66 -43t-88 -16h-185v-105q0 -17 -12 -29t-30 -12q-17 0 -29 12t-12 29v586q0 17 12 28.5t31 11.5q17 0 28.5 -11.5t11.5 -28.5v-79h185q50 0 89 -16t65.5 -44t40.5 -64.5t14 -77.5zM469 346q0 57 -36.5 92.5t-96.5 35.5h-175v-254
h175q60 0 96.5 34.5t36.5 91.5z" />
    <glyph glyph-name="germandbls" unicode="&#xdf;" horiz-adv-x="597" 
d="M578 135q0 -29 -11.5 -56t-35 -47t-58.5 -32t-81 -12q-30 0 -55 4.5t-45 12.5t-36.5 19t-31.5 25q-11 11 -11 25q0 13 8 23t21 10q9 0 19 -8q23 -22 56.5 -36t74.5 -14q57 0 85 26t28 58q0 29 -21.5 44.5t-53 26t-69 19t-69 23.5t-53 40.5t-21.5 69.5q0 27 11 47t27 35.5
t35 27.5t35 23.5t27 24t11 28.5q0 17 -9 29.5t-23 21t-31.5 13t-35.5 4.5q-24 0 -44.5 -7.5t-36.5 -22t-25 -35t-9 -46.5v-468q0 -15 -11 -26t-27 -11q-15 0 -26 11t-11 26v468q0 37 13.5 69.5t38 56.5t60 38t79.5 14q34 0 66 -8.5t56 -25t38.5 -40t14.5 -52.5
q0 -28 -11 -47t-28 -34t-36 -26.5t-36 -24t-28 -27.5t-11 -35q0 -26 21.5 -39.5t53 -22.5t69 -17.5t69 -24.5t53 -43.5t21.5 -74.5z" />
    <glyph glyph-name="agrave" unicode="&#xe0;" horiz-adv-x="527" 
d="M452 31q0 -15 -11 -26t-27 -11q-15 0 -26 11t-11 26v2v11v11q-30 -33 -70.5 -50t-89.5 -17q-31 0 -61 10t-54 30.5t-39 50.5t-15 69q0 40 15 70t39 50t54 29.5t61 9.5q50 0 90.5 -16t69.5 -50v87q0 49 -34.5 75.5t-87.5 26.5q-36 0 -67 -11.5t-59 -34.5q-10 -8 -21 -8
q-12 0 -22.5 8t-10.5 22q0 13 10 22q19 17 40 29.5t43.5 21t46.5 12.5t50 4q38 0 72 -9t59.5 -28.5t40.5 -50.5t15 -75v-301zM377 102v91q-22 30 -57.5 45t-75.5 15q-53 0 -86 -29.5t-33 -76.5q0 -46 33 -75.5t86 -29.5q40 0 75.5 15t57.5 45zM299 571q0 -8 -5.5 -14.5
t-14.5 -6.5q-6 0 -13 5l-126 108q-8 6 -8 17q0 10 7.5 17.5t18.5 7.5t18 -7l118 -114q5 -7 5 -13z" />
    <glyph glyph-name="aacute" unicode="&#xe1;" horiz-adv-x="527" 
d="M452 31q0 -15 -11 -26t-27 -11q-15 0 -26 11t-11 26v2v11v11q-30 -33 -70.5 -50t-89.5 -17q-31 0 -61 10t-54 30.5t-39 50.5t-15 69q0 40 15 70t39 50t54 29.5t61 9.5q50 0 90.5 -16t69.5 -50v87q0 49 -34.5 75.5t-87.5 26.5q-36 0 -67 -11.5t-59 -34.5q-10 -8 -21 -8
q-12 0 -22.5 8t-10.5 22q0 13 10 22q19 17 40 29.5t43.5 21t46.5 12.5t50 4q38 0 72 -9t59.5 -28.5t40.5 -50.5t15 -75v-301zM377 102v91q-22 30 -57.5 45t-75.5 15q-53 0 -86 -29.5t-33 -76.5q0 -46 33 -75.5t86 -29.5q40 0 75.5 15t57.5 45zM398 680q0 -11 -8 -17
l-126 -108q-7 -5 -12 -5q-8 0 -14.5 6t-6.5 15q0 8 5 13l118 114q7 7 18 7q9 0 17.5 -7t8.5 -18z" />
    <glyph glyph-name="acircumflex" unicode="&#xe2;" horiz-adv-x="527" 
d="M452 31q0 -15 -11 -26t-27 -11q-15 0 -26 11t-11 26v2v11v11q-30 -33 -70.5 -50t-89.5 -17q-31 0 -61 10t-54 30.5t-39 50.5t-15 69q0 40 15 70t39 50t54 29.5t61 9.5q50 0 90.5 -16t69.5 -50v87q0 49 -34.5 75.5t-87.5 26.5q-36 0 -67 -11.5t-59 -34.5q-10 -8 -21 -8
q-12 0 -22.5 8t-10.5 22q0 13 10 22q19 17 40 29.5t43.5 21t46.5 12.5t50 4q38 0 72 -9t59.5 -28.5t40.5 -50.5t15 -75v-301zM377 102v91q-22 30 -57.5 45t-75.5 15q-53 0 -86 -29.5t-33 -76.5q0 -46 33 -75.5t86 -29.5q40 0 75.5 15t57.5 45zM384 570q0 -7 -5.5 -14
t-16.5 -7q-10 0 -16 8l-82 105l-79 -104q-6 -8 -17 -8q-8 0 -15 5.5t-7 14.5q0 3 4 11l65 99q8 12 21 19t29 7q14 0 27 -7t21 -19l68 -99q3 -5 3 -11z" />
    <glyph glyph-name="atilde" unicode="&#xe3;" horiz-adv-x="527" 
d="M452 31q0 -15 -11 -26t-27 -11q-15 0 -26 11t-11 26v2v11v11q-30 -33 -70.5 -50t-89.5 -17q-31 0 -61 10t-54 30.5t-39 50.5t-15 69q0 40 15 70t39 50t54 29.5t61 9.5q50 0 90.5 -16t69.5 -50v87q0 49 -34.5 75.5t-87.5 26.5q-36 0 -67 -11.5t-59 -34.5q-10 -8 -21 -8
q-12 0 -22.5 8t-10.5 22q0 13 10 22q19 17 40 29.5t43.5 21t46.5 12.5t50 4q38 0 72 -9t59.5 -28.5t40.5 -50.5t15 -75v-301zM377 102v91q-22 30 -57.5 45t-75.5 15q-53 0 -86 -29.5t-33 -76.5q0 -46 33 -75.5t86 -29.5q40 0 75.5 15t57.5 45zM421 667q-2 -25 -9.5 -46
t-19.5 -36t-29 -23t-38 -8q-27 0 -43 14.5t-28 31.5t-23 31.5t-29 14.5t-30.5 -15.5t-16.5 -48.5q-1 -10 -8 -16t-17 -6q-9 0 -14.5 5.5t-5.5 13.5q0 25 7.5 46.5t20.5 36.5t30.5 23.5t37.5 8.5q27 0 43 -14.5t27.5 -31.5t23 -31.5t29.5 -14.5t30.5 15.5t16.5 48.5
q1 10 8 16t17 6t15 -6.5t5 -14.5z" />
    <glyph glyph-name="adieresis" unicode="&#xe4;" horiz-adv-x="527" 
d="M452 31q0 -15 -11 -26t-27 -11q-15 0 -26 11t-11 26v2v11v11q-30 -33 -70.5 -50t-89.5 -17q-31 0 -61 10t-54 30.5t-39 50.5t-15 69q0 40 15 70t39 50t54 29.5t61 9.5q50 0 90.5 -16t69.5 -50v87q0 49 -34.5 75.5t-87.5 26.5q-36 0 -67 -11.5t-59 -34.5q-10 -8 -21 -8
q-12 0 -22.5 8t-10.5 22q0 13 10 22q19 17 40 29.5t43.5 21t46.5 12.5t50 4q38 0 72 -9t59.5 -28.5t40.5 -50.5t15 -75v-301zM377 102v91q-22 30 -57.5 45t-75.5 15q-53 0 -86 -29.5t-33 -76.5q0 -46 33 -75.5t86 -29.5q40 0 75.5 15t57.5 45zM415 604q0 -20 -14 -33.5
t-33 -13.5t-33 13.5t-14 33.5q0 19 14 32.5t33 13.5t33 -13.5t14 -32.5zM208 604q0 -20 -13.5 -33.5t-32.5 -13.5q-20 0 -33.5 13.5t-13.5 33.5q0 19 13.5 32.5t33.5 13.5q19 0 32.5 -13.5t13.5 -32.5z" />
    <glyph glyph-name="aring" unicode="&#xe5;" horiz-adv-x="527" 
d="M452 31q0 -15 -11 -26t-27 -11q-15 0 -26 11t-11 26v2v11v11q-30 -33 -70.5 -50t-89.5 -17q-31 0 -61 10t-54 30.5t-39 50.5t-15 69q0 40 15 70t39 50t54 29.5t61 9.5q50 0 90.5 -16t69.5 -50v87q0 49 -34.5 75.5t-87.5 26.5q-36 0 -67 -11.5t-59 -34.5q-10 -8 -21 -8
q-12 0 -22.5 8t-10.5 22q0 13 10 22q19 17 40 29.5t43.5 21t46.5 12.5t50 4q38 0 72 -9t59.5 -28.5t40.5 -50.5t15 -75v-301zM377 102v91q-22 30 -57.5 45t-75.5 15q-53 0 -86 -29.5t-33 -76.5q0 -46 33 -75.5t86 -29.5q40 0 75.5 15t57.5 45zM363 641q0 -20 -7.5 -38
t-21 -31.5t-31.5 -21t-38 -7.5t-38 7.5t-31.5 21t-21 31.5t-7.5 38t7.5 38t21 31.5t31.5 21.5t38 8t38 -8t31.5 -21.5t21 -31.5t7.5 -38zM323 641q0 25 -16.5 42t-41.5 17q-24 0 -41 -17t-17 -42q0 -24 17 -41.5t41 -17.5q25 0 41.5 17.5t16.5 41.5z" />
    <glyph glyph-name="ae" unicode="&#xe6;" horiz-adv-x="889" 
d="M842 258q0 -17 -12 -29t-29 -12h-325q3 -34 15 -64t32.5 -52.5t49 -35.5t64.5 -13q32 0 62 10t55 30q8 7 21 7q12 0 22 -8t10 -22q0 -12 -10 -22q-18 -15 -37.5 -26t-40 -18.5t-42 -11t-43.5 -3.5q-64 0 -114 28t-79 88q-26 -52 -79 -84t-120 -32q-39 0 -74 10t-62 30.5
t-42.5 50.5t-15.5 69t14.5 68.5t39 50t57 30.5t67.5 10q54 0 98.5 -15.5t76.5 -48.5v86q0 48 -36.5 74.5t-96.5 26.5q-40 0 -74 -11t-65 -36q-8 -7 -20 -7q-11 0 -22 8.5t-11 22.5q0 13 10 22q20 17 42 29.5t46 20.5t50 12t53 4q30 0 57.5 -6t50.5 -19t39.5 -32.5
t23.5 -47.5q12 22 29.5 41t39.5 33t49.5 22.5t60.5 8.5q84 0 138 -50t71 -137q2 -12 4 -24.5t2 -25.5zM769 272q0 27 -8.5 55.5t-26.5 52t-45.5 38.5t-66.5 15q-36 0 -62.5 -15t-45 -38t-28 -51.5t-10.5 -56.5h293zM401 180v12q-25 29 -63.5 45t-81.5 16q-59 0 -95 -27.5
t-36 -73.5t36 -73t95 -27q32 0 58.5 11t46 29t30 41t10.5 47z" />
    <glyph glyph-name="ccedilla" unicode="&#xe7;" horiz-adv-x="495" 
d="M455 73q0 -14 -8 -22q-13 -14 -27.5 -25t-32 -18.5t-37.5 -12.5t-44 -6l-16 -42q16 11 37 11q29 0 47.5 -18t18.5 -49q0 -37 -30.5 -58.5t-73.5 -21.5q-15 0 -32.5 2.5t-32.5 7.5t-25 12.5t-10 18.5q0 8 6.5 14t14.5 6q5 0 8 -2q17 -11 34.5 -15.5t34.5 -4.5
q24 0 42.5 11t18.5 31q0 16 -9 25.5t-28 9.5q-13 0 -24 -8t-22 -8q-9 0 -15.5 6.5t-6.5 15.5v3.5t1 3.5l18 50q-48 4 -88 25t-68 54.5t-43.5 77.5t-15.5 95q0 54 17.5 100t49 80t76 53.5t98.5 19.5q27 0 50 -4.5t42.5 -13t36 -20t30.5 -25.5q8 -10 8 -21q0 -13 -10 -23.5
t-24 -10.5q-15 0 -26 11q-22 21 -47.5 30.5t-55.5 9.5q-39 0 -69.5 -14t-52.5 -39t-33.5 -59t-11.5 -74t11.5 -74.5t33.5 -59.5t52.5 -39t69.5 -14q61 0 103 41q10 9 25 9q14 0 24.5 -9t10.5 -23z" />
    <glyph glyph-name="egrave" unicode="&#xe8;" horiz-adv-x="563" 
d="M516 258q0 -17 -12 -29t-29 -12h-349q2 -34 15 -64.5t35.5 -53t53.5 -36t70 -13.5q35 0 68 11t62 34q8 5 17 5q10 0 20 -8.5t10 -22.5q0 -16 -11 -24q-36 -29 -79 -43t-94 -14q-54 0 -99 18.5t-77.5 52t-51 80t-18.5 103.5q0 52 18 98.5t49.5 80.5t75 54t95.5 20
q45 0 82 -13.5t65.5 -38.5t48 -59t28.5 -76q2 -11 4.5 -24t2.5 -26zM443 272q0 27 -9.5 55.5t-29 52t-49.5 38.5t-71 15q-39 0 -68 -15t-48.5 -38t-30 -51.5t-11.5 -56.5h317zM319 571q0 -8 -5.5 -14.5t-14.5 -6.5q-6 0 -13 5l-126 108q-8 6 -8 17q0 10 7.5 17.5t18.5 7.5
t18 -7l118 -114q5 -7 5 -13z" />
    <glyph glyph-name="eacute" unicode="&#xe9;" horiz-adv-x="563" 
d="M516 258q0 -17 -12 -29t-29 -12h-349q2 -34 15 -64.5t35.5 -53t53.5 -36t70 -13.5q35 0 68 11t62 34q8 5 17 5q10 0 20 -8.5t10 -22.5q0 -16 -11 -24q-36 -29 -79 -43t-94 -14q-54 0 -99 18.5t-77.5 52t-51 80t-18.5 103.5q0 52 18 98.5t49.5 80.5t75 54t95.5 20
q45 0 82 -13.5t65.5 -38.5t48 -59t28.5 -76q2 -11 4.5 -24t2.5 -26zM443 272q0 27 -9.5 55.5t-29 52t-49.5 38.5t-71 15q-39 0 -68 -15t-48.5 -38t-30 -51.5t-11.5 -56.5h317zM418 680q0 -11 -8 -17l-126 -108q-7 -5 -12 -5q-8 0 -14.5 6t-6.5 15q0 8 5 13l118 114q7 7 18 7
q9 0 17.5 -7t8.5 -18z" />
    <glyph glyph-name="ecircumflex" unicode="&#xea;" horiz-adv-x="563" 
d="M516 258q0 -17 -12 -29t-29 -12h-349q2 -34 15 -64.5t35.5 -53t53.5 -36t70 -13.5q35 0 68 11t62 34q8 5 17 5q10 0 20 -8.5t10 -22.5q0 -16 -11 -24q-36 -29 -79 -43t-94 -14q-54 0 -99 18.5t-77.5 52t-51 80t-18.5 103.5q0 52 18 98.5t49.5 80.5t75 54t95.5 20
q45 0 82 -13.5t65.5 -38.5t48 -59t28.5 -76q2 -11 4.5 -24t2.5 -26zM443 272q0 27 -9.5 55.5t-29 52t-49.5 38.5t-71 15q-39 0 -68 -15t-48.5 -38t-30 -51.5t-11.5 -56.5h317zM405 570q0 -7 -5.5 -14t-16.5 -7q-10 0 -16 8l-82 105l-79 -104q-6 -8 -17 -8q-8 0 -15 5.5
t-7 14.5q0 3 4 11l65 99q8 12 21 19t29 7q14 0 27 -7t21 -19l68 -99q3 -5 3 -11z" />
    <glyph glyph-name="edieresis" unicode="&#xeb;" horiz-adv-x="563" 
d="M516 258q0 -17 -12 -29t-29 -12h-349q2 -34 15 -64.5t35.5 -53t53.5 -36t70 -13.5q35 0 68 11t62 34q8 5 17 5q10 0 20 -8.5t10 -22.5q0 -16 -11 -24q-36 -29 -79 -43t-94 -14q-54 0 -99 18.5t-77.5 52t-51 80t-18.5 103.5q0 52 18 98.5t49.5 80.5t75 54t95.5 20
q45 0 82 -13.5t65.5 -38.5t48 -59t28.5 -76q2 -11 4.5 -24t2.5 -26zM443 272q0 27 -9.5 55.5t-29 52t-49.5 38.5t-71 15q-39 0 -68 -15t-48.5 -38t-30 -51.5t-11.5 -56.5h317zM436 604q0 -20 -14 -33.5t-33 -13.5t-33 13.5t-14 33.5q0 19 14 32.5t33 13.5t33 -13.5t14 -32.5
zM229 604q0 -20 -13.5 -33.5t-32.5 -13.5q-20 0 -33.5 13.5t-13.5 33.5q0 19 13.5 32.5t33.5 13.5q19 0 32.5 -13.5t13.5 -32.5z" />
    <glyph glyph-name="igrave" unicode="&#xec;" horiz-adv-x="225" 
d="M150 31q0 -15 -11 -26t-27 -11q-15 0 -26 11t-11 26v422q0 14 11 25t28 11q14 0 25 -11t11 -25v-422v0zM147 571q0 -8 -5.5 -14.5t-14.5 -6.5q-6 0 -13 5l-126 108q-8 6 -8 17q0 10 7.5 17.5t18.5 7.5t18 -7l118 -114q5 -7 5 -13z" />
    <glyph glyph-name="iacute" unicode="&#xed;" horiz-adv-x="225" 
d="M150 31q0 -15 -11 -26t-27 -11q-15 0 -26 11t-11 26v422q0 14 11 25t28 11q14 0 25 -11t11 -25v-422v0zM246 680q0 -11 -8 -17l-126 -108q-7 -5 -12 -5q-8 0 -14.5 6t-6.5 15q0 8 5 13l118 114q7 7 18 7q9 0 17.5 -7t8.5 -18z" />
    <glyph glyph-name="icircumflex" unicode="&#xee;" horiz-adv-x="225" 
d="M150 31q0 -15 -11 -26t-27 -11q-15 0 -26 11t-11 26v422q0 14 11 25t28 11q14 0 25 -11t11 -25v-422v0zM232 570q0 -7 -5.5 -14t-16.5 -7q-10 0 -16 8l-82 105l-79 -104q-6 -8 -17 -8q-8 0 -15 5.5t-7 14.5q0 3 4 11l65 99q8 12 21 19t29 7q14 0 27 -7t21 -19l68 -99
q3 -5 3 -11z" />
    <glyph glyph-name="idieresis" unicode="&#xef;" horiz-adv-x="225" 
d="M150 31q0 -15 -11 -26t-27 -11q-15 0 -26 11t-11 26v422q0 14 11 25t28 11q14 0 25 -11t11 -25v-422v0zM264 604q0 -20 -14 -33.5t-33 -13.5t-33 13.5t-14 33.5q0 19 14 32.5t33 13.5t33 -13.5t14 -32.5zM57 604q0 -20 -13.5 -33.5t-32.5 -13.5q-20 0 -33.5 13.5
t-13.5 33.5q0 19 13.5 32.5t33.5 13.5q19 0 32.5 -13.5t13.5 -32.5z" />
    <glyph glyph-name="eth" unicode="&#xf0;" 
d="M525 247q0 -56 -16.5 -103.5t-47.5 -82t-75.5 -54t-99.5 -19.5q-54 0 -98 18.5t-75.5 51.5t-48.5 78t-17 98q0 52 16 97t45.5 78t70 51.5t88.5 18.5q47 0 86 -20.5t72 -68.5q-28 50 -69 91.5t-91 78.5l-123 -54q-6 -2 -9 -2q-8 0 -15 6.5t-7 17.5q0 13 13 20l98 43
q-8 5 -18.5 11t-20 13.5t-16 16t-6.5 18.5q0 16 11.5 27t26.5 11q9 0 22 -7t27.5 -16.5t28 -20.5t23.5 -19l89 39q4 2 8 2q8 0 14.5 -5.5t6.5 -16.5q0 -15 -12 -21l-67 -29q40 -35 74.5 -73.5t59 -81.5t38.5 -91t14 -101zM446 234q0 35 -10.5 67.5t-31 57t-50 39t-68.5 14.5
t-69 -14.5t-50.5 -39t-31 -57t-10.5 -67.5q0 -36 10.5 -68t31 -57t50.5 -39.5t69 -14.5t68.5 14.5t50 39.5t31 57t10.5 68z" />
    <glyph glyph-name="ntilde" unicode="&#xf1;" horiz-adv-x="551" 
d="M476 31q0 -15 -11 -26t-27 -11q-15 0 -26 11t-11 26v285q0 64 -29.5 88t-78.5 24q-22 0 -43 -6t-40 -16.5t-34.5 -24t-25.5 -28.5v-322q0 -15 -11 -26t-27 -11q-15 0 -26 11t-11 26v422q0 14 11 25t28 11q14 0 25 -11t11 -25v-40q13 15 31 29.5t40.5 26.5t48 19t52.5 7
q76 0 115 -38.5t39 -117.5v-308v0zM432 667q-2 -25 -9.5 -46t-19.5 -36t-29 -23t-38 -8q-27 0 -43 14.5t-28 31.5t-23 31.5t-29 14.5t-30.5 -15.5t-16.5 -48.5q-1 -10 -8 -16t-17 -6q-9 0 -14.5 5.5t-5.5 13.5q0 25 7.5 46.5t20.5 36.5t30.5 23.5t37.5 8.5q27 0 43 -14.5
t27.5 -31.5t23 -31.5t29.5 -14.5t30.5 15.5t16.5 48.5q1 10 8 16t17 6t15 -6.5t5 -14.5z" />
    <glyph glyph-name="ograve" unicode="&#xf2;" 
d="M525 242q0 -53 -16.5 -99t-47.5 -80.5t-75.5 -54.5t-99.5 -20t-99.5 20t-75.5 54.5t-47.5 80.5t-16.5 99q0 52 16.5 98.5t47.5 80.5t75.5 54t99.5 20t99.5 -20t75.5 -54t47.5 -80.5t16.5 -98.5zM446 242q0 37 -10.5 70.5t-31 59t-50 41t-68.5 15.5t-69 -15.5t-50.5 -41
t-31 -59t-10.5 -70.5t10.5 -71t31 -59.5t50.5 -41t69 -15.5t68.5 15.5t50 41t31 59.5t10.5 71zM320 571q0 -8 -5.5 -14.5t-14.5 -6.5q-6 0 -13 5l-126 108q-8 6 -8 17q0 10 7.5 17.5t18.5 7.5t18 -7l118 -114q5 -7 5 -13z" />
    <glyph glyph-name="oacute" unicode="&#xf3;" 
d="M525 242q0 -53 -16.5 -99t-47.5 -80.5t-75.5 -54.5t-99.5 -20t-99.5 20t-75.5 54.5t-47.5 80.5t-16.5 99q0 52 16.5 98.5t47.5 80.5t75.5 54t99.5 20t99.5 -20t75.5 -54t47.5 -80.5t16.5 -98.5zM446 242q0 37 -10.5 70.5t-31 59t-50 41t-68.5 15.5t-69 -15.5t-50.5 -41
t-31 -59t-10.5 -70.5t10.5 -71t31 -59.5t50.5 -41t69 -15.5t68.5 15.5t50 41t31 59.5t10.5 71zM419 680q0 -11 -8 -17l-126 -108q-7 -5 -12 -5q-8 0 -14.5 6t-6.5 15q0 8 5 13l118 114q7 7 18 7q9 0 17.5 -7t8.5 -18z" />
    <glyph glyph-name="ocircumflex" unicode="&#xf4;" 
d="M525 242q0 -53 -16.5 -99t-47.5 -80.5t-75.5 -54.5t-99.5 -20t-99.5 20t-75.5 54.5t-47.5 80.5t-16.5 99q0 52 16.5 98.5t47.5 80.5t75.5 54t99.5 20t99.5 -20t75.5 -54t47.5 -80.5t16.5 -98.5zM446 242q0 37 -10.5 70.5t-31 59t-50 41t-68.5 15.5t-69 -15.5t-50.5 -41
t-31 -59t-10.5 -70.5t10.5 -71t31 -59.5t50.5 -41t69 -15.5t68.5 15.5t50 41t31 59.5t10.5 71zM405 570q0 -7 -5.5 -14t-16.5 -7q-10 0 -16 8l-82 105l-79 -104q-6 -8 -17 -8q-8 0 -15 5.5t-7 14.5q0 3 4 11l65 99q8 12 21 19t29 7q14 0 27 -7t21 -19l68 -99q3 -5 3 -11z
" />
    <glyph glyph-name="otilde" unicode="&#xf5;" 
d="M525 242q0 -53 -16.5 -99t-47.5 -80.5t-75.5 -54.5t-99.5 -20t-99.5 20t-75.5 54.5t-47.5 80.5t-16.5 99q0 52 16.5 98.5t47.5 80.5t75.5 54t99.5 20t99.5 -20t75.5 -54t47.5 -80.5t16.5 -98.5zM446 242q0 37 -10.5 70.5t-31 59t-50 41t-68.5 15.5t-69 -15.5t-50.5 -41
t-31 -59t-10.5 -70.5t10.5 -71t31 -59.5t50.5 -41t69 -15.5t68.5 15.5t50 41t31 59.5t10.5 71zM442 667q-2 -25 -9.5 -46t-19.5 -36t-29 -23t-38 -8q-27 0 -43 14.5t-28 31.5t-23 31.5t-29 14.5t-30.5 -15.5t-16.5 -48.5q-1 -10 -8 -16t-17 -6q-9 0 -14.5 5.5t-5.5 13.5
q0 25 7.5 46.5t20.5 36.5t30.5 23.5t37.5 8.5q27 0 43 -14.5t27.5 -31.5t23 -31.5t29.5 -14.5t30.5 15.5t16.5 48.5q1 10 8 16t17 6t15 -6.5t5 -14.5z" />
    <glyph glyph-name="odieresis" unicode="&#xf6;" 
d="M525 242q0 -53 -16.5 -99t-47.5 -80.5t-75.5 -54.5t-99.5 -20t-99.5 20t-75.5 54.5t-47.5 80.5t-16.5 99q0 52 16.5 98.5t47.5 80.5t75.5 54t99.5 20t99.5 -20t75.5 -54t47.5 -80.5t16.5 -98.5zM446 242q0 37 -10.5 70.5t-31 59t-50 41t-68.5 15.5t-69 -15.5t-50.5 -41
t-31 -59t-10.5 -70.5t10.5 -71t31 -59.5t50.5 -41t69 -15.5t68.5 15.5t50 41t31 59.5t10.5 71zM436 604q0 -20 -14 -33.5t-33 -13.5t-33 13.5t-14 33.5q0 19 14 32.5t33 13.5t33 -13.5t14 -32.5zM229 604q0 -20 -13.5 -33.5t-32.5 -13.5q-20 0 -33.5 13.5t-13.5 33.5
q0 19 13.5 32.5t33.5 13.5q19 0 32.5 -13.5t13.5 -32.5z" />
    <glyph glyph-name="divide" unicode="&#xf7;" horiz-adv-x="511" 
d="M255 572q20 0 33.5 -13t13.5 -33q0 -19 -13.5 -32.5t-33.5 -13.5q-19 0 -32 13.5t-13 32.5q0 20 13 33t32 13zM482 338q0 -12 -7 -19.5t-18 -7.5h-403q-11 0 -18 7.5t-7 19.5q0 11 7 18t18 7h403q11 0 18 -7t7 -18zM302 144q0 -19 -13.5 -32.5t-33.5 -13.5
q-19 0 -32 13.5t-13 32.5t13 32.5t32 13.5q20 0 33.5 -13.5t13.5 -32.5z" />
    <glyph glyph-name="oslash" unicode="&#xf8;" 
d="M113 -5q-5 -7 -14 -7q-8 0 -15 6t-7 15q0 8 4 12l31 40q-32 35 -48.5 81t-16.5 100q0 52 16.5 98.5t47.5 80.5t75.5 54t99.5 20q40 0 74.5 -10.5t62.5 -30.5l27 34q4 7 14 7q8 0 15 -6t7 -15q0 -8 -4 -13l-27 -35q34 -35 52 -82t18 -102q0 -53 -16.5 -99t-47.5 -80.5
t-75.5 -54.5t-99.5 -20q-83 0 -142 45zM188 89q20 -16 44 -25t54 -9q39 0 68.5 15.5t50 41t31 59.5t10.5 71q0 73 -38 125zM286 428q-39 0 -69 -15.5t-50.5 -41t-31 -59t-10.5 -70.5q0 -70 34 -121l219 277q-38 30 -92 30z" />
    <glyph glyph-name="ugrave" unicode="&#xf9;" horiz-adv-x="551" 
d="M476 31q0 -15 -11 -26t-27 -11q-15 0 -26 11t-11 26v37q-28 -32 -73 -56t-99 -24q-76 0 -115 37.5t-39 116.5v311q0 14 11 25t28 11q14 0 25 -11t11 -25v-288q0 -32 7.5 -53t22 -34t34.5 -18t44 -5q44 0 83 22t60 51v325q0 14 11 25t28 11q14 0 25 -11t11 -25v-422v0z
M309 571q0 -8 -5.5 -14.5t-14.5 -6.5q-6 0 -13 5l-126 108q-8 6 -8 17q0 10 7.5 17.5t18.5 7.5t18 -7l118 -114q5 -7 5 -13z" />
    <glyph glyph-name="uacute" unicode="&#xfa;" horiz-adv-x="551" 
d="M476 31q0 -15 -11 -26t-27 -11q-15 0 -26 11t-11 26v37q-28 -32 -73 -56t-99 -24q-76 0 -115 37.5t-39 116.5v311q0 14 11 25t28 11q14 0 25 -11t11 -25v-288q0 -32 7.5 -53t22 -34t34.5 -18t44 -5q44 0 83 22t60 51v325q0 14 11 25t28 11q14 0 25 -11t11 -25v-422v0z
M408 680q0 -11 -8 -17l-126 -108q-7 -5 -12 -5q-8 0 -14.5 6t-6.5 15q0 8 5 13l118 114q7 7 18 7q9 0 17.5 -7t8.5 -18z" />
    <glyph glyph-name="ucircumflex" unicode="&#xfb;" horiz-adv-x="551" 
d="M476 31q0 -15 -11 -26t-27 -11q-15 0 -26 11t-11 26v37q-28 -32 -73 -56t-99 -24q-76 0 -115 37.5t-39 116.5v311q0 14 11 25t28 11q14 0 25 -11t11 -25v-288q0 -32 7.5 -53t22 -34t34.5 -18t44 -5q44 0 83 22t60 51v325q0 14 11 25t28 11q14 0 25 -11t11 -25v-422v0z
M394 570q0 -7 -5.5 -14t-16.5 -7q-10 0 -16 8l-82 105l-79 -104q-6 -8 -17 -8q-8 0 -15 5.5t-7 14.5q0 3 4 11l65 99q8 12 21 19t29 7q14 0 27 -7t21 -19l68 -99q3 -5 3 -11z" />
    <glyph glyph-name="udieresis" unicode="&#xfc;" horiz-adv-x="551" 
d="M476 31q0 -15 -11 -26t-27 -11q-15 0 -26 11t-11 26v37q-28 -32 -73 -56t-99 -24q-76 0 -115 37.5t-39 116.5v311q0 14 11 25t28 11q14 0 25 -11t11 -25v-288q0 -32 7.5 -53t22 -34t34.5 -18t44 -5q44 0 83 22t60 51v325q0 14 11 25t28 11q14 0 25 -11t11 -25v-422v0z
M427 604q0 -20 -14 -33.5t-33 -13.5t-33 13.5t-14 33.5q0 19 14 32.5t33 13.5t33 -13.5t14 -32.5zM220 604q0 -20 -13.5 -33.5t-32.5 -13.5q-20 0 -33.5 13.5t-13.5 33.5q0 19 13.5 32.5t33.5 13.5q19 0 32.5 -13.5t13.5 -32.5z" />
    <glyph glyph-name="yacute" unicode="&#xfd;" horiz-adv-x="490" 
d="M472 452q0 -7 -3 -13l-224 -537q-22 -52 -58.5 -75t-83.5 -23q-10 0 -20.5 1t-19 4t-14 10t-5.5 19q0 15 10 24.5t23 9.5q7 0 13 -0.5t12 -0.5q23 -1 40 10t31 41l32 73l-184 444q-3 6 -3 13q0 14 10.5 25.5t27.5 11.5q11 0 20.5 -6t14.5 -17l154 -379l153 379
q5 11 14.5 17t20.5 6q17 0 28 -11t11 -26zM378 680q0 -11 -8 -17l-126 -108q-7 -5 -12 -5q-8 0 -14.5 6t-6.5 15q0 8 5 13l118 114q7 7 18 7q9 0 17.5 -7t8.5 -18z" />
    <glyph glyph-name="thorn" unicode="&#xfe;" 
d="M528 242q0 -59 -15.5 -106t-44 -80t-68 -50.5t-87.5 -17.5q-50 0 -92 22t-71 63v-221q0 -14 -11 -25t-27 -11q-15 0 -26 11t-11 25v779q0 14 11 25t28 11q14 0 25 -11t11 -25v-220q26 37 69 60.5t94 23.5q48 0 87.5 -17.5t68 -50t44 -79.5t15.5 -106zM449 242
q0 40 -10.5 74t-30.5 59t-49 39t-65 14q-45 0 -84.5 -22.5t-59.5 -54.5v-218q20 -32 59.5 -55t84.5 -23q36 0 65 14t49 39t30.5 59.5t10.5 74.5z" />
    <glyph glyph-name="ydieresis" unicode="&#xff;" horiz-adv-x="490" 
d="M472 452q0 -7 -3 -13l-224 -537q-22 -52 -58.5 -75t-83.5 -23q-10 0 -20.5 1t-19 4t-14 10t-5.5 19q0 15 10 24.5t23 9.5q7 0 13 -0.5t12 -0.5q23 -1 40 10t31 41l32 73l-184 444q-3 6 -3 13q0 14 10.5 25.5t27.5 11.5q11 0 20.5 -6t14.5 -17l154 -379l153 379
q5 11 14.5 17t20.5 6q17 0 28 -11t11 -26zM395 604q0 -20 -14 -33.5t-33 -13.5t-33 13.5t-14 33.5q0 19 14 32.5t33 13.5t33 -13.5t14 -32.5zM188 604q0 -20 -13.5 -33.5t-32.5 -13.5q-20 0 -33.5 13.5t-13.5 33.5q0 19 13.5 32.5t33.5 13.5q19 0 32.5 -13.5t13.5 -32.5z
" />
    <glyph glyph-name="Dcroat" unicode="&#x110;" horiz-adv-x="728" 
d="M676 333q0 -71 -24.5 -132t-69 -105.5t-107.5 -70t-141 -25.5h-168q-25 0 -42.5 17.5t-17.5 42.5v239h-72q-13 0 -21.5 9t-8.5 23q0 12 8.5 20.5t21.5 8.5h72v247q0 25 17.5 42.5t42.5 17.5h168q78 0 141 -25.5t107.5 -70.5t69 -106t24.5 -132zM590 333q0 54 -17 101.5
t-49.5 82.5t-80 55.5t-109.5 20.5h-145v-233h146q12 0 20.5 -8.5t8.5 -22.5q0 -13 -8.5 -21.5t-20.5 -8.5h-146v-225h145q61 0 108.5 20.5t80.5 55.5t50 82t17 101z" />
    <glyph glyph-name="dotlessi" unicode="&#x131;" horiz-adv-x="225" 
d="M150 31q0 -15 -11 -26t-27 -11q-15 0 -26 11t-11 26v422q0 14 11 25t28 11q14 0 25 -11t11 -25v-422v0z" />
    <glyph glyph-name="OE" unicode="&#x152;" horiz-adv-x="1105" 
d="M1057 38q0 -17 -10.5 -27.5t-25.5 -10.5h-348q-22 0 -35 9.5t-19 26t-7 38.5t1 46q-18 -33 -44.5 -57.5t-57.5 -41t-66 -25t-70 -8.5q-73 0 -132.5 26t-102 72.5t-66 109.5t-23.5 137t23.5 137t66 109t102 72t132.5 26q35 0 70 -8t66 -24.5t57.5 -41t44.5 -57.5
q-2 24 -1.5 46t7 38.5t19.5 26.5t35 10h348q15 0 25.5 -10.5t10.5 -27.5q0 -15 -10.5 -25.5t-25.5 -10.5h-325v-215h318q15 0 25.5 -10.5t10.5 -27.5q0 -15 -10.5 -25.5t-25.5 -10.5h-318v-230h325q15 0 25.5 -10.5t10.5 -25.5zM613 223v220q-29 80 -90.5 120t-138.5 40
q-57 0 -102.5 -20.5t-78 -56.5t-49.5 -85.5t-17 -107.5q0 -59 17 -108.5t49.5 -85.5t78 -56.5t102.5 -20.5q78 0 139 40.5t90 120.5z" />
    <glyph glyph-name="oe" unicode="&#x153;" horiz-adv-x="962" 
d="M914 258q0 -17 -12 -29t-29 -12h-347q2 -34 15 -64.5t35 -53t53 -36t70 -13.5q35 0 68.5 11t62.5 34q8 5 17 5q10 0 20 -8.5t10 -22.5q0 -16 -11 -24q-18 -14 -38 -25t-41.5 -18t-45 -10.5t-48.5 -3.5q-47 0 -81.5 13.5t-59.5 34.5t-41.5 45t-25.5 45q-9 -20 -24.5 -44
t-39 -45t-57 -35t-78.5 -14q-55 0 -99.5 20t-75.5 54.5t-47.5 80.5t-16.5 99q0 52 16.5 98.5t47.5 80.5t75.5 54t99.5 20q45 0 79 -14.5t58 -35.5t39.5 -45t23.5 -43q8 19 24 43t40 45t57.5 35.5t76.5 14.5q88 0 146 -50.5t78 -136.5q2 -12 4 -24.5t2 -25.5zM843 272
q-1 27 -10.5 55.5t-29 52t-49.5 38.5t-71 15q-39 0 -68 -15t-48.5 -38t-30 -51.5t-11.5 -56.5h318zM446 242q0 38 -11 71.5t-31.5 59t-50 40.5t-67.5 15t-68 -15t-50.5 -40.5t-31.5 -59t-11 -71.5t11 -72.5t31.5 -60t50.5 -40.5t68 -15t67.5 15t50 40.5t31.5 60t11 72.5z
" />
    <glyph glyph-name="Scaron" unicode="&#x160;" horiz-adv-x="586" 
d="M540 184q0 -36 -13 -71.5t-42.5 -63t-76.5 -44.5t-114 -17q-37 0 -70.5 6t-62.5 17t-54.5 26t-46.5 34q-13 12 -13 30q0 15 10.5 28.5t28.5 13.5q6 0 12.5 -1.5t11.5 -6.5q35 -31 82 -52t105 -21q45 0 75 11t48 27.5t26 37t8 39.5q0 32 -17 53t-44.5 35.5t-63 24t-73 20
t-73 23.5t-63 33.5t-44.5 50.5t-17 75q0 41 17.5 75t48 58.5t72.5 38t91 13.5q32 0 62 -5t57 -14t51 -22t44 -30q14 -12 14 -30q0 -15 -11 -27.5t-28 -12.5q-14 0 -24 9q-37 30 -81 44t-90 14q-60 0 -98.5 -29t-38.5 -77q0 -28 17 -46t44.5 -31t63 -22.5t73 -20t73 -24.5
t63 -36t44.5 -54t17 -79zM407 853q0 -7 -3 -11l-68 -99q-8 -12 -21 -19t-29 -7q-14 0 -27 7t-21 19l-65 99q-3 4 -3 11q0 6 5.5 13t15.5 7q11 0 17 -8l79 -104l82 105q6 7 16 7q8 0 15 -5.5t7 -14.5z" />
    <glyph glyph-name="scaron" unicode="&#x161;" horiz-adv-x="465" 
d="M418 134q0 -30 -12 -57t-36 -46.5t-59.5 -31t-82.5 -11.5q-26 0 -50 3.5t-46.5 11t-43.5 19t-40 28.5q-11 9 -11 23t10 23t24 9q12 0 22 -7q26 -21 62 -35t76 -14q56 0 85 23.5t29 59.5q0 29 -22 44.5t-55.5 25.5t-72 18.5t-72 24t-55.5 41t-22 70.5q0 28 12 53.5
t35 44.5t56.5 30t76.5 11q26 0 49 -4t43.5 -11t38 -18t33.5 -24q10 -9 10 -22t-9 -21.5t-21 -8.5t-20 7q-23 18 -55 29.5t-69 11.5q-50 0 -78.5 -22t-28.5 -54q0 -26 22 -40t55.5 -23.5t72 -18t72 -24.5t55.5 -43.5t22 -74.5zM350 686q0 -7 -3 -11l-68 -99q-8 -12 -21 -19
t-29 -7q-14 0 -27 7t-21 19l-65 99q-3 4 -3 11q0 6 5.5 13t15.5 7q11 0 17 -8l79 -104l82 105q6 7 16 7q8 0 15 -5.5t7 -14.5z" />
    <glyph glyph-name="Ydieresis" unicode="&#x178;" horiz-adv-x="626" 
d="M585 633q0 -12 -6 -21l-224 -330v-247q0 -17 -12 -29t-30 -12q-17 0 -29 12t-12 29v247l-225 330q-7 10 -7 21q0 14 10.5 27t29.5 13q9 0 18.5 -4.5t15.5 -12.5l199 -299l199 299q5 8 14 12t18 4q17 0 29 -11.5t12 -27.5zM465 771q0 -20 -14 -33.5t-33 -13.5t-33 13.5
t-14 33.5q0 19 14 32.5t33 13.5t33 -13.5t14 -32.5zM258 771q0 -20 -13.5 -33.5t-32.5 -13.5q-20 0 -33.5 13.5t-13.5 33.5q0 19 13.5 32.5t33.5 13.5q19 0 32.5 -13.5t13.5 -32.5z" />
    <glyph glyph-name="Zcaron" unicode="&#x17d;" horiz-adv-x="585" 
d="M542 38q0 -17 -10.5 -27.5t-25.5 -10.5h-421q-16 0 -29 13t-13 33q0 16 9 28l371 519h-345q-15 0 -25.5 10.5t-10.5 27.5q0 15 10.5 25.5t25.5 10.5h414q16 0 29 -13t13 -33q0 -16 -9 -28l-371 -519h352q15 0 25.5 -10.5t10.5 -25.5zM411 853q0 -7 -3 -11l-68 -99
q-8 -12 -21 -19t-29 -7q-14 0 -27 7t-21 19l-65 99q-3 4 -3 11q0 6 5.5 13t15.5 7q11 0 17 -8l79 -104l82 105q6 7 16 7q8 0 15 -5.5t7 -14.5z" />
    <glyph glyph-name="zcaron" unicode="&#x17e;" horiz-adv-x="472" 
d="M426 34q0 -15 -9 -24.5t-22 -9.5h-314q-14 0 -24 10.5t-10 27.5q0 7 2.5 13.5t6.5 11.5l262 354h-240q-14 0 -23 9.5t-9 24.5q0 14 9 23t23 9h310q13 0 23 -10t10 -27q0 -13 -8 -24l-265 -357h247q13 0 22 -9t9 -22zM352 686q0 -7 -3 -11l-68 -99q-8 -12 -21 -19t-29 -7
q-14 0 -27 7t-21 19l-65 99q-3 4 -3 11q0 6 5.5 13t15.5 7q11 0 17 -8l79 -104l82 105q6 7 16 7q8 0 15 -5.5t7 -14.5z" />
    <glyph glyph-name="florin" unicode="&#x192;" horiz-adv-x="431" 
d="M440 628q0 -8 -3 -14.5t-8 -11.5t-11 -8t-13 -3q-11 0 -22 6t-25 6q-36 0 -63 -24t-37 -68l-42 -189h112q14 0 23.5 -10t9.5 -25q0 -14 -9.5 -23.5t-23.5 -9.5h-127l-87 -392q-3 -14 -14.5 -23t-25.5 -9q-17 0 -29 11t-12 28v4.5t1 4.5l83 376h-41q-14 0 -23.5 10
t-9.5 25q0 14 9.5 23.5t23.5 9.5h55l46 204q8 35 24 63t38.5 47.5t51 30t60.5 10.5q13 0 28.5 -2.5t29 -8t22.5 -15t9 -23.5z" />
    <glyph glyph-name="circumflex" unicode="&#x2c6;" horiz-adv-x="265" 
d="M251 570q0 -7 -5.5 -14t-16.5 -7q-10 0 -16 8l-82 105l-79 -104q-6 -8 -17 -8q-8 0 -15 5.5t-7 14.5q0 3 4 11l65 99q8 12 21 19t29 7q14 0 27 -7t21 -19l68 -99q3 -5 3 -11z" />
    <glyph glyph-name="caron" unicode="&#x2c7;" horiz-adv-x="265" 
d="M254 686q0 -7 -3 -11l-68 -99q-8 -12 -21 -19t-29 -7q-14 0 -27 7t-21 19l-65 99q-3 4 -3 11q0 6 5.5 13t15.5 7q11 0 17 -8l79 -104l82 105q6 7 16 7q8 0 15 -5.5t7 -14.5z" />
    <glyph glyph-name="ring" unicode="&#x2da;" horiz-adv-x="196" 
d="M196 641q0 -20 -7.5 -38t-21 -31.5t-31.5 -21t-38 -7.5t-38 7.5t-31.5 21t-21 31.5t-7.5 38t7.5 38t21 31.5t31.5 21.5t38 8t38 -8t31.5 -21.5t21 -31.5t7.5 -38zM156 641q0 25 -16.5 42t-41.5 17q-24 0 -41 -17t-17 -42q0 -24 17 -41.5t41 -17.5q25 0 41.5 17.5
t16.5 41.5z" />
    <glyph glyph-name="tilde" unicode="&#x2dc;" horiz-adv-x="313" 
d="M312 667q-2 -25 -9.5 -46t-19.5 -36t-29 -23t-38 -8q-27 0 -43 14.5t-28 31.5t-23 31.5t-29 14.5t-30.5 -15.5t-16.5 -48.5q-1 -10 -8 -16t-17 -6q-9 0 -14.5 5.5t-5.5 13.5q0 25 7.5 46.5t20.5 36.5t30.5 23.5t37.5 8.5q27 0 43 -14.5t27.5 -31.5t23 -31.5t29.5 -14.5
t30.5 15.5t16.5 48.5q1 10 8 16t17 6t15 -6.5t5 -14.5z" />
    <glyph glyph-name="endash" unicode="&#x2013;" horiz-adv-x="593" 
d="M569 243q0 -15 -9 -24.5t-23 -9.5h-481q-14 0 -23 9.5t-9 24.5q0 14 9 23t23 9h481q14 0 23 -9t9 -23z" />
    <glyph glyph-name="emdash" unicode="&#x2014;" horiz-adv-x="833" 
d="M809 243q0 -15 -9 -24.5t-23 -9.5h-721q-14 0 -23 9.5t-9 24.5q0 14 9 23t23 9h721q14 0 23 -9t9 -23z" />
    <glyph glyph-name="quoteleft" unicode="&#x2018;" horiz-adv-x="230" 
d="M163 505q0 -22 -15 -38t-38 -16q-12 0 -23.5 5t-20.5 15t-14 24t-5 32q0 40 20 78.5t51 64.5q7 5 13 5q8 0 16.5 -6.5t8.5 -17.5q0 -10 -8 -18q-18 -17 -31.5 -38t-15.5 -41q2 1 6 1.5t8 0.5q21 0 34.5 -14t13.5 -37z" />
    <glyph glyph-name="quoteright" unicode="&#x2019;" horiz-adv-x="230" 
d="M176 601q0 -40 -20 -78.5t-51 -64.5q-7 -5 -13 -5q-8 0 -16.5 6t-8.5 17t8 19q18 17 31.5 38t15.5 41q-2 -1 -6 -1.5t-8 -0.5q-21 0 -34.5 14t-13.5 37q0 22 15 38t38 16q12 0 23.5 -5t20.5 -15t14 -24t5 -32z" />
    <glyph glyph-name="quotesinglbase" unicode="&#x201a;" horiz-adv-x="230" 
d="M176 24q0 -40 -20 -78.5t-51 -64.5q-7 -5 -13 -5q-8 0 -16.5 6t-8.5 17t8 19q18 17 31.5 38t15.5 41q-2 -1 -6 -1.5t-8 -0.5q-21 0 -34.5 14t-13.5 37q0 22 15 38t38 16q12 0 23.5 -5t20.5 -15t14 -24t5 -32z" />
    <glyph glyph-name="quotedblleft" unicode="&#x201c;" horiz-adv-x="390" 
d="M329 505q0 -22 -15 -38t-38 -16q-12 0 -23.5 5t-20.5 15t-14 24t-5 32q0 40 20 78.5t51 64.5q7 5 13 5q8 0 16.5 -6.5t8.5 -17.5q0 -10 -8 -18q-18 -17 -31.5 -38t-15.5 -41q2 1 6 1.5t8 0.5q21 0 34.5 -14t13.5 -37zM169 505q0 -22 -15 -38t-38 -16q-12 0 -23.5 5
t-20.5 15t-14 24t-5 32q0 40 20 78.5t51 64.5q7 5 13 5q8 0 16.5 -6.5t8.5 -17.5q0 -10 -8 -18q-18 -17 -31.5 -38t-15.5 -41q2 1 6 1.5t8 0.5q21 0 34.5 -14t13.5 -37z" />
    <glyph glyph-name="quotedblright" unicode="&#x201d;" horiz-adv-x="390" 
d="M336 601q0 -40 -20 -78.5t-51 -64.5q-7 -5 -13 -5q-8 0 -16.5 6t-8.5 17t8 19q18 17 31.5 38t15.5 41q-2 -1 -6 -1.5t-8 -0.5q-21 0 -34.5 14t-13.5 37q0 22 15 38t38 16q12 0 23.5 -5t20.5 -15t14 -24t5 -32zM176 601q0 -40 -20 -78.5t-51 -64.5q-7 -5 -13 -5
q-8 0 -16.5 6t-8.5 17t8 19q18 17 31.5 38t15.5 41q-2 -1 -6 -1.5t-8 -0.5q-21 0 -34.5 14t-13.5 37q0 22 15 38t38 16q12 0 23.5 -5t20.5 -15t14 -24t5 -32z" />
    <glyph glyph-name="quotedblbase" unicode="&#x201e;" horiz-adv-x="390" 
d="M336 24q0 -40 -20 -78.5t-51 -64.5q-7 -5 -13 -5q-8 0 -16.5 6t-8.5 17t8 19q18 17 31.5 38t15.5 41q-2 -1 -6 -1.5t-8 -0.5q-21 0 -34.5 14t-13.5 37q0 22 15 38t38 16q12 0 23.5 -5t20.5 -15t14 -24t5 -32zM176 24q0 -40 -20 -78.5t-51 -64.5q-7 -5 -13 -5
q-8 0 -16.5 6t-8.5 17t8 19q18 17 31.5 38t15.5 41q-2 -1 -6 -1.5t-8 -0.5q-21 0 -34.5 14t-13.5 37q0 22 15 38t38 16q12 0 23.5 -5t20.5 -15t14 -24t5 -32z" />
    <glyph glyph-name="dagger" unicode="&#x2020;" horiz-adv-x="263" 
d="M246 554q0 -11 -6 -16.5t-14 -5.5l-75 3l4 -191q0 -9 -7 -16t-18 -7q-10 0 -16 7t-6 16l4 191l-75 -3q-8 0 -14 5.5t-6 16.5q0 9 6 14t14 5l75 -2l-4 89q-1 9 6 16t18 7q10 0 16 -7t6 -16l-3 -89l75 2q8 0 14 -5t6 -14z" />
    <glyph glyph-name="daggerdbl" unicode="&#x2021;" horiz-adv-x="263" 
d="M246 304q0 -10 -6 -15t-14 -5l-75 2l3 -89q0 -9 -6.5 -16t-17.5 -7q-10 0 -16 7t-6 16l3 89l-74 -2q-8 0 -14 5.5t-6 16.5q0 9 6 14t14 5l74 -3v213l-74 -3q-8 0 -14 5.5t-6 16.5q0 9 6 14t14 5l74 -2l-3 89q0 9 6.5 16t17.5 7q10 0 16 -7t6 -16l-3 -89l75 2q8 0 14 -5
t6 -16q0 -10 -6 -15t-14 -5l-75 3v-213l75 3q8 0 14 -5t6 -16z" />
    <glyph glyph-name="bullet" unicode="&#x2022;" horiz-adv-x="358" 
d="M288 242q0 -22 -8.5 -41.5t-23.5 -34t-34.5 -23t-41.5 -8.5t-41.5 8.5t-34.5 23t-23.5 34t-8.5 41.5t8.5 41.5t23.5 34.5t34.5 23.5t41.5 8.5t41.5 -8.5t34.5 -23.5t23.5 -34.5t8.5 -41.5z" />
    <glyph glyph-name="ellipsis" unicode="&#x2026;" horiz-adv-x="690" 
d="M630 45q0 -11 -4.5 -21t-12 -17.5t-17.5 -12t-21 -4.5t-21 4.5t-17.5 12t-12 17.5t-4.5 21q0 23 16 39t39 16t39 -16t16 -39zM400 45q0 -11 -4.5 -21t-12 -17.5t-18 -12t-21.5 -4.5t-21 4.5t-17.5 12t-11.5 17.5t-4 21q0 23 15.5 39t38.5 16t39.5 -16t16.5 -39zM169 45
q0 -11 -4.5 -21t-12 -17.5t-17.5 -12t-21 -4.5t-21 4.5t-17.5 12t-11.5 17.5t-4 21q0 23 15.5 39t38.5 16t39 -16t16 -39z" />
    <glyph glyph-name="perthousand" unicode="&#x2030;" horiz-adv-x="1083" 
d="M191 677q36 0 66 -12.5t51 -35t33 -53t12 -65.5t-12 -65t-33 -51.5t-51 -34t-66 -12.5t-65.5 12.5t-50.5 34t-32.5 51.5t-11.5 65t11.5 65.5t32.5 53t50.5 35t65.5 12.5zM539 317q36 0 65.5 -12.5t50.5 -35t33 -53t12 -65.5t-12 -65t-33 -51.5t-50.5 -34t-65.5 -12.5
t-65.5 12.5t-50.5 34t-32.5 51.5t-11.5 65t11.5 65.5t32.5 53t50.5 35t65.5 12.5zM191 395q45 0 73.5 33t28.5 83q0 51 -28.5 85t-73.5 34t-72.5 -34t-27.5 -85q0 -50 27.5 -83t72.5 -33zM539 35q45 0 73.5 33t28.5 83q0 51 -28.5 85t-73.5 34t-73 -34t-28 -85q0 -50 28 -83
t73 -33zM891 317q36 0 65.5 -12.5t50.5 -35t33 -53t12 -65.5t-12 -65t-33 -51.5t-50.5 -34t-65.5 -12.5t-65.5 12.5t-50.5 34t-32.5 51.5t-11.5 65t11.5 65.5t32.5 53t50.5 35t65.5 12.5zM891 35q45 0 73.5 33t28.5 83q0 51 -28.5 85t-73.5 34t-72.5 -34t-27.5 -85
q0 -50 27.5 -83t72.5 -33zM185 3q-7 -10 -18 -10q-9 0 -16.5 6.5t-7.5 16.5q0 7 4 12l405 635q7 10 19 10q10 0 16.5 -7.5t6.5 -16.5q0 -7 -3 -11z" />
    <glyph glyph-name="guilsinglleft" unicode="&#x2039;" horiz-adv-x="295" 
d="M237 85q0 -11 -8.5 -20t-20.5 -9q-13 0 -20 9l-118 133q-17 19 -17 44q0 26 17 45l118 130q7 9 20 9q10 0 19.5 -7.5t9.5 -19.5q0 -11 -7 -18l-125 -138l125 -141q7 -9 7 -17z" />
    <glyph glyph-name="guilsinglright" unicode="&#x203a;" horiz-adv-x="295" 
d="M242 242q0 -24 -17 -44l-118 -133q-8 -9 -20 -9q-11 0 -20 8t-9 20q0 11 7 18l125 141l-125 138q-7 7 -7 17t7.5 19t20.5 9q12 0 21 -9l118 -130q17 -20 17 -45z" />
    <glyph glyph-name="Euro" unicode="&#x20ac;" horiz-adv-x="695" 
d="M415 678q75 0 130 -27t93 -68q11 -13 11 -29t-11 -28t-28 -12q-8 0 -15.5 3t-12.5 10q-29 35 -74.5 56t-92.5 21q-43 0 -81 -12.5t-69.5 -35t-55 -54.5t-36.5 -71h284q11 0 18 -7.5t7 -19.5q0 -11 -7 -18t-18 -7h-296q-2 -11 -2.5 -22.5t-0.5 -23.5q0 -11 0.5 -22
t2.5 -22h296q11 0 18 -7.5t7 -19.5q0 -11 -7 -18t-18 -7h-284q13 -40 36.5 -72t55 -55t69.5 -35.5t81 -12.5q48 0 91.5 19.5t75.5 56.5q5 6 12.5 9.5t15.5 3.5q17 0 28 -12t11 -29q0 -8 -3 -15t-8 -13q-39 -41 -93.5 -67.5t-129.5 -26.5q-60 0 -114 17.5t-97.5 50t-74 78.5
t-45.5 103h-34q-11 0 -18 7.5t-7 19.5q0 11 7 18t18 7h24q-1 11 -1.5 22t-0.5 22t0.5 23t1.5 23h-24q-11 0 -18 7.5t-7 19.5q0 11 7 18t18 7h34q15 56 46 101.5t74.5 78t97 50t113.5 17.5z" />
    <glyph glyph-name="trademark" unicode="&#x2122;" horiz-adv-x="454" 
d="M419 454q0 -13 -15 -13q-13 0 -13 13v175l-70 -168q-3 -6 -9 -6t-9 7l-70 167v-175q0 -13 -15 -13q-13 0 -13 13v193q0 8 7 16t18 8q16 0 22 -14l60 -150l60 150q5 14 21 14q11 0 18.5 -6.5t7.5 -17.5v-193zM175 655q0 -6 -3.5 -10t-8.5 -4h-56v-187q0 -13 -15 -13
q-13 0 -13 13v187h-56q-5 0 -8.5 4t-3.5 10q0 5 3.5 8.5t8.5 3.5h140q5 0 8.5 -3.5t3.5 -8.5z" />
    <glyph glyph-name="minus" unicode="&#x2212;" horiz-adv-x="511" 
d="M482 338q0 -12 -7 -19.5t-18 -7.5h-403q-11 0 -18 7.5t-7 19.5q0 11 7 18t18 7h403q11 0 18 -7t7 -18z" />
    </font>
</defs>
</svg>
